{
	"asset":{
		"generator":"Khronos glTF Blender I/O v5.1.19",
		"version":"2.0"
	},
	"scene":0,
	"scenes":[
		{
			"name":"Scene",
			"nodes":[
				0,
				1,
				2,
				3,
				4,
				5,
				6,
				7,
				8,
				9,
				10,
				11,
				12,
				13,
				14,
				15,
				16,
				17,
				18,
				19,
				20,
				21,
				22,
				23,
				24,
				25,
				26,
				27,
				28,
				29,
				30,
				31,
				32,
				33,
				34,
				35,
				36,
				37,
				38,
				39,
				40,
				41,
				42
			]
		}
	],
	"nodes":[
		{
			"mesh":0,
			"name":"Cube",
			"scale":[
				1,
				1,
				8.449395179748535
			]
		},
		{
			"mesh":1,
			"name":"\u5186\u67f1",
			"translation":[
				0,
				3.464655876159668,
				-3.4968245029449463
			]
		},
		{
			"mesh":2,
			"name":"\u5186\u67f1.001",
			"rotation":[
				-0.706219494342804,
				0,
				0,
				0.7079929709434509
			],
			"scale":[
				0.3680241107940674,
				1.827707290649414,
				0.32271847128868103
			],
			"translation":[
				1.2503459453582764,
				-0.5158784985542297,
				0
			]
		},
		{
			"mesh":3,
			"name":"\u5186\u67f1.002",
			"rotation":[
				-0.706219494342804,
				0,
				0,
				0.7079929709434509
			],
			"scale":[
				0.3680241107940674,
				1.827707290649414,
				0.32271847128868103
			],
			"translation":[
				-1.415539264678955,
				-0.5158784985542297,
				0
			]
		},
		{
			"mesh":4,
			"name":"\u7403",
			"scale":[
				0.364496648311615,
				0.3024079501628876,
				0.5305835008621216
			],
			"translation":[
				1.2689733505249023,
				-0.5001101493835449,
				1.8389954566955566
			]
		},
		{
			"mesh":5,
			"name":"\u7403.001",
			"scale":[
				0.364496648311615,
				0.3024079501628876,
				0.5305835008621216
			],
			"translation":[
				-1.404768466949463,
				-0.5001101493835449,
				1.8389954566955566
			]
		},
		{
			"mesh":6,
			"name":"\u7acb\u65b9\u4f53",
			"scale":[
				1,
				0.37868672609329224,
				3.8992674350738525
			],
			"translation":[
				0,
				1.0523850917816162,
				-1.7453463077545166
			]
		},
		{
			"mesh":7,
			"name":"\u5186\u67f1.003",
			"scale":[
				0.35644739866256714,
				0.3140592575073242,
				0.3667715787887573
			],
			"translation":[
				0,
				2.0593788623809814,
				0
			]
		},
		{
			"mesh":8,
			"name":"\u7acb\u65b9\u4f53.001",
			"scale":[
				0.49618881940841675,
				0.39989978075027466,
				1
			],
			"translation":[
				0,
				2.412684679031372,
				0.21472571790218353
			]
		},
		{
			"mesh":9,
			"name":"\u5186\u67f1.004",
			"rotation":[
				0.6708739399909973,
				0,
				0,
				0.7415714263916016
			],
			"scale":[
				0.08218295127153397,
				0.986655056476593,
				0.09062851965427399
			],
			"translation":[
				-0.33726561069488525,
				2.558454990386963,
				1.570152997970581
			]
		},
		{
			"mesh":10,
			"name":"\u5186\u67f1.005",
			"rotation":[
				0.6708739399909973,
				0,
				0,
				0.7415714263916016
			],
			"scale":[
				0.08218295127153397,
				0.986655056476593,
				0.09062851965427399
			],
			"translation":[
				0.0017949005123227835,
				2.558454990386963,
				1.570152997970581
			]
		},
		{
			"mesh":11,
			"name":"\u5186\u67f1.006",
			"rotation":[
				0.6708739399909973,
				0,
				0,
				0.7415714263916016
			],
			"scale":[
				0.08218295127153397,
				0.986655056476593,
				0.09062851965427399
			],
			"translation":[
				0.3331889510154724,
				2.558454990386963,
				1.570152997970581
			]
		},
		{
			"mesh":12,
			"name":"\u7acb\u65b9\u4f53.002",
			"translation":[
				0,
				1.7510255575180054,
				-3.228869915008545
			]
		},
		{
			"mesh":13,
			"name":"\u7acb\u65b9\u4f53.003",
			"rotation":[
				0.07833268493413925,
				0,
				0,
				0.9969273209571838
			],
			"scale":[
				0.3005192279815674,
				1,
				1
			],
			"translation":[
				-0.3263241946697235,
				2.453042984008789,
				0
			]
		},
		{
			"mesh":14,
			"name":"\u7acb\u65b9\u4f53.004",
			"rotation":[
				0.07833268493413925,
				0,
				0,
				0.9969273209571838
			],
			"scale":[
				0.3005192279815674,
				1,
				1
			],
			"translation":[
				0,
				2.453042984008789,
				0
			]
		},
		{
			"mesh":15,
			"name":"\u7acb\u65b9\u4f53.005",
			"rotation":[
				0.07833268493413925,
				0,
				0,
				0.9969273209571838
			],
			"scale":[
				0.3005192279815674,
				1,
				1
			],
			"translation":[
				0.3277285695075989,
				2.453042984008789,
				0
			]
		},
		{
			"mesh":16,
			"name":"\u5186\u67f1.007",
			"rotation":[
				-0.7115743160247803,
				0,
				0,
				0.7026109099388123
			],
			"scale":[
				0.7363054752349854,
				1.7181288003921509,
				0.6963593363761902
			],
			"translation":[
				1.3160078525543213,
				-0.505152702331543,
				-4.81080436706543
			]
		},
		{
			"mesh":17,
			"name":"\u5186\u67f1.008",
			"rotation":[
				-0.7115743160247803,
				0,
				0,
				0.7026109099388123
			],
			"scale":[
				0.7363054752349854,
				1.7181288003921509,
				0.6963593363761902
			],
			"translation":[
				-1.299156904220581,
				-0.505152702331543,
				-4.81080436706543
			]
		},
		{
			"mesh":18,
			"name":"\u7acb\u65b9\u4f53.006",
			"rotation":[
				0.07833268493413925,
				0,
				0,
				0.9969273209571838
			],
			"scale":[
				0.3005192279815674,
				1,
				1
			],
			"translation":[
				0.3277285695075989,
				2.453042984008789,
				0
			]
		},
		{
			"mesh":19,
			"name":"\u7acb\u65b9\u4f53.007",
			"rotation":[
				0.07833268493413925,
				0,
				0,
				0.9969273209571838
			],
			"scale":[
				0.3005192279815674,
				1,
				1
			],
			"translation":[
				0,
				2.453042984008789,
				0
			]
		},
		{
			"mesh":20,
			"name":"\u7acb\u65b9\u4f53.008",
			"rotation":[
				0.07833268493413925,
				0,
				0,
				0.9969273209571838
			],
			"scale":[
				0.3005192279815674,
				1,
				1
			],
			"translation":[
				-0.3263241946697235,
				2.453042984008789,
				0
			]
		},
		{
			"mesh":21,
			"name":"\u7acb\u65b9\u4f53.009",
			"scale":[
				0.49618881940841675,
				0.39989978075027466,
				1
			],
			"translation":[
				0,
				2.412684679031372,
				0.21472571790218353
			]
		},
		{
			"mesh":22,
			"name":"\u5186\u67f1.009",
			"rotation":[
				0.6708739399909973,
				0,
				0,
				0.7415714263916016
			],
			"scale":[
				0.08218295127153397,
				0.986655056476593,
				0.09062851965427399
			],
			"translation":[
				0.3331889510154724,
				2.558454990386963,
				1.570152997970581
			]
		},
		{
			"mesh":23,
			"name":"\u5186\u67f1.010",
			"rotation":[
				0.6708739399909973,
				0,
				0,
				0.7415714263916016
			],
			"scale":[
				0.08218295127153397,
				0.986655056476593,
				0.09062851965427399
			],
			"translation":[
				0.0017949005123227835,
				2.558454990386963,
				1.570152997970581
			]
		},
		{
			"mesh":24,
			"name":"\u5186\u67f1.011",
			"rotation":[
				0.6708739399909973,
				0,
				0,
				0.7415714263916016
			],
			"scale":[
				0.08218295127153397,
				0.986655056476593,
				0.09062851965427399
			],
			"translation":[
				-0.33726561069488525,
				2.558454990386963,
				1.570152997970581
			]
		},
		{
			"mesh":25,
			"name":"\u5186\u67f1.012",
			"scale":[
				0.35644739866256714,
				0.3140592575073242,
				0.3667715787887573
			],
			"translation":[
				0,
				2.0593788623809814,
				0
			]
		},
		{
			"mesh":26,
			"name":"\u7acb\u65b9\u4f53.010",
			"scale":[
				0.49618881940841675,
				0.39989978075027466,
				1
			],
			"translation":[
				0,
				1.7719714641571045,
				4.403382778167725
			]
		},
		{
			"mesh":27,
			"name":"\u7acb\u65b9\u4f53.011",
			"rotation":[
				0.07833268493413925,
				0,
				0,
				0.9969273209571838
			],
			"scale":[
				0.3005192279815674,
				1,
				1
			],
			"translation":[
				-0.3263241946697235,
				1.8123297691345215,
				4.188656806945801
			]
		},
		{
			"mesh":28,
			"name":"\u7acb\u65b9\u4f53.012",
			"rotation":[
				0.07833268493413925,
				0,
				0,
				0.9969273209571838
			],
			"scale":[
				0.3005192279815674,
				1,
				1
			],
			"translation":[
				0,
				1.8123297691345215,
				4.188656806945801
			]
		},
		{
			"mesh":29,
			"name":"\u7acb\u65b9\u4f53.013",
			"rotation":[
				0.07833268493413925,
				0,
				0,
				0.9969273209571838
			],
			"scale":[
				0.3005192279815674,
				1,
				1
			],
			"translation":[
				0.3277285695075989,
				1.8123297691345215,
				4.188656806945801
			]
		},
		{
			"mesh":30,
			"name":"\u7acb\u65b9\u4f53.014",
			"rotation":[
				0.07833268493413925,
				0,
				0,
				0.9969273209571838
			],
			"scale":[
				0.3005192279815674,
				1,
				1
			],
			"translation":[
				0.3277285695075989,
				1.8123297691345215,
				4.188656806945801
			]
		},
		{
			"mesh":31,
			"name":"\u7acb\u65b9\u4f53.015",
			"rotation":[
				0.07833268493413925,
				0,
				0,
				0.9969273209571838
			],
			"scale":[
				0.3005192279815674,
				1,
				1
			],
			"translation":[
				0,
				1.8123297691345215,
				4.188656806945801
			]
		},
		{
			"mesh":32,
			"name":"\u7acb\u65b9\u4f53.016",
			"rotation":[
				0.07833268493413925,
				0,
				0,
				0.9969273209571838
			],
			"scale":[
				0.3005192279815674,
				1,
				1
			],
			"translation":[
				-0.3263241946697235,
				1.8123297691345215,
				4.188656806945801
			]
		},
		{
			"mesh":33,
			"name":"\u7acb\u65b9\u4f53.017",
			"scale":[
				0.49618881940841675,
				0.39989978075027466,
				1
			],
			"translation":[
				0,
				1.7719714641571045,
				4.403382778167725
			]
		},
		{
			"mesh":34,
			"name":"\u7acb\u65b9\u4f53.018",
			"scale":[
				1,
				0.37868672609329224,
				3.8992674350738525
			],
			"translation":[
				0,
				0.41167178750038147,
				2.4433107376098633
			]
		},
		{
			"mesh":35,
			"name":"\u5186\u67f1.013",
			"scale":[
				0.35644739866256714,
				0.3140592575073242,
				0.3667715787887573
			],
			"translation":[
				0,
				1.4186656475067139,
				4.188656806945801
			]
		},
		{
			"mesh":36,
			"name":"\u5186\u67f1.014",
			"rotation":[
				0.6708739399909973,
				0,
				0,
				0.7415714263916016
			],
			"scale":[
				0.08218295127153397,
				0.986655056476593,
				0.09062851965427399
			],
			"translation":[
				-0.33726561069488525,
				1.9177417755126953,
				5.758809566497803
			]
		},
		{
			"mesh":37,
			"name":"\u5186\u67f1.015",
			"rotation":[
				0.6708739399909973,
				0,
				0,
				0.7415714263916016
			],
			"scale":[
				0.08218295127153397,
				0.986655056476593,
				0.09062851965427399
			],
			"translation":[
				0.0017949005123227835,
				1.9177417755126953,
				5.758809566497803
			]
		},
		{
			"mesh":38,
			"name":"\u5186\u67f1.016",
			"rotation":[
				0.6708739399909973,
				0,
				0,
				0.7415714263916016
			],
			"scale":[
				0.08218295127153397,
				0.986655056476593,
				0.09062851965427399
			],
			"translation":[
				0.3331889510154724,
				1.9177417755126953,
				5.758809566497803
			]
		},
		{
			"mesh":39,
			"name":"\u5186\u67f1.017",
			"rotation":[
				0.6708739399909973,
				0,
				0,
				0.7415714263916016
			],
			"scale":[
				0.08218295127153397,
				0.986655056476593,
				0.09062851965427399
			],
			"translation":[
				0.3331889510154724,
				1.9177417755126953,
				5.758809566497803
			]
		},
		{
			"mesh":40,
			"name":"\u5186\u67f1.018",
			"rotation":[
				0.6708739399909973,
				0,
				0,
				0.7415714263916016
			],
			"scale":[
				0.08218295127153397,
				0.986655056476593,
				0.09062851965427399
			],
			"translation":[
				0.0017949005123227835,
				1.9177417755126953,
				5.758809566497803
			]
		},
		{
			"mesh":41,
			"name":"\u5186\u67f1.019",
			"rotation":[
				0.6708739399909973,
				0,
				0,
				0.7415714263916016
			],
			"scale":[
				0.08218295127153397,
				0.986655056476593,
				0.09062851965427399
			],
			"translation":[
				-0.33726561069488525,
				1.9177417755126953,
				5.758809566497803
			]
		},
		{
			"mesh":42,
			"name":"\u5186\u67f1.020",
			"scale":[
				0.35644739866256714,
				0.3140592575073242,
				0.3667715787887573
			],
			"translation":[
				0,
				1.4186656475067139,
				4.188656806945801
			]
		}
	],
	"materials":[
		{
			"doubleSided":true,
			"name":"Material",
			"pbrMetallicRoughness":{
				"baseColorFactor":[
					0.005062807817012072,
					0.001412752433679998,
					0.3089091181755066,
					1
				],
				"metallicFactor":0,
				"roughnessFactor":0.5
			}
		},
		{
			"doubleSided":true,
			"name":"\u30de\u30c6\u30ea\u30a2\u30eb.003",
			"pbrMetallicRoughness":{
				"baseColorFactor":[
					0.01980612426996231,
					0.015799790620803833,
					0.8000074625015259,
					1
				],
				"metallicFactor":0,
				"roughnessFactor":0.5
			}
		},
		{
			"doubleSided":true,
			"name":"\u30de\u30c6\u30ea\u30a2\u30eb.021",
			"pbrMetallicRoughness":{
				"baseColorFactor":[
					0.7991030812263489,
					0.0382043793797493,
					0.015208518132567406,
					1
				],
				"metallicFactor":0,
				"roughnessFactor":0.5
			}
		},
		{
			"doubleSided":true,
			"name":"\u30de\u30c6\u30ea\u30a2\u30eb.023",
			"pbrMetallicRoughness":{
				"baseColorFactor":[
					0.7991030812263489,
					0.0382043793797493,
					0.015208518132567406,
					1
				],
				"metallicFactor":0,
				"roughnessFactor":0.5
			}
		},
		{
			"doubleSided":true,
			"name":"\u30de\u30c6\u30ea\u30a2\u30eb.022",
			"pbrMetallicRoughness":{
				"baseColorFactor":[
					0.7991030812263489,
					0.0382043793797493,
					0.015208518132567406,
					1
				],
				"metallicFactor":0,
				"roughnessFactor":0.5
			}
		},
		{
			"doubleSided":true,
			"name":"\u30de\u30c6\u30ea\u30a2\u30eb.024",
			"pbrMetallicRoughness":{
				"baseColorFactor":[
					0.7991030812263489,
					0.0382043793797493,
					0.015208518132567406,
					1
				],
				"metallicFactor":0,
				"roughnessFactor":0.5
			}
		},
		{
			"doubleSided":true,
			"name":"\u30de\u30c6\u30ea\u30a2\u30eb.004",
			"pbrMetallicRoughness":{
				"baseColorFactor":[
					0.022173885256052017,
					0.09084172546863556,
					0.6307573914527893,
					1
				],
				"metallicFactor":0,
				"roughnessFactor":0.5
			}
		},
		{
			"doubleSided":true,
			"name":"\u30de\u30c6\u30ea\u30a2\u30eb.006",
			"pbrMetallicRoughness":{
				"baseColorFactor":[
					0.327778160572052,
					0.012983033433556557,
					0.34191447496414185,
					1
				],
				"metallicFactor":0,
				"roughnessFactor":0.5
			}
		},
		{
			"doubleSided":true,
			"name":"\u30de\u30c6\u30ea\u30a2\u30eb.005",
			"pbrMetallicRoughness":{
				"baseColorFactor":[
					0.013702084310352802,
					0.14126333594322205,
					0.010960094630718231,
					1
				],
				"metallicFactor":0,
				"roughnessFactor":0.5
			}
		},
		{
			"doubleSided":true,
			"name":"\u30de\u30c6\u30ea\u30a2\u30eb.016",
			"pbrMetallicRoughness":{
				"baseColorFactor":[
					0.7991030812263489,
					0.0009105810313485563,
					0.2746773362159729,
					1
				],
				"metallicFactor":0,
				"roughnessFactor":0.5
			}
		},
		{
			"doubleSided":true,
			"name":"\u30de\u30c6\u30ea\u30a2\u30eb.015",
			"pbrMetallicRoughness":{
				"baseColorFactor":[
					0.7991030812263489,
					0.0009105810313485563,
					0.2746773362159729,
					1
				],
				"metallicFactor":0,
				"roughnessFactor":0.5
			}
		},
		{
			"doubleSided":true,
			"name":"\u30de\u30c6\u30ea\u30a2\u30eb.014",
			"pbrMetallicRoughness":{
				"baseColorFactor":[
					0.7991030812263489,
					0.0009105810313485563,
					0.2746773362159729,
					1
				],
				"metallicFactor":0,
				"roughnessFactor":0.5
			}
		},
		{
			"doubleSided":true,
			"name":"\u30de\u30c6\u30ea\u30a2\u30eb.002",
			"pbrMetallicRoughness":{
				"baseColorFactor":[
					0.0038792560808360577,
					0.305014431476593,
					0.8000074625015259,
					1
				],
				"metallicFactor":0,
				"roughnessFactor":0.5
			}
		},
		{
			"doubleSided":true,
			"name":"\u30de\u30c6\u30ea\u30a2\u30eb.008",
			"pbrMetallicRoughness":{
				"baseColorFactor":[
					0.013702084310352802,
					0.14126333594322205,
					0.010960094630718231,
					1
				],
				"metallicFactor":0,
				"roughnessFactor":0.5
			}
		},
		{
			"doubleSided":true,
			"name":"\u30de\u30c6\u30ea\u30a2\u30eb.009",
			"pbrMetallicRoughness":{
				"baseColorFactor":[
					0.013702084310352802,
					0.14126333594322205,
					0.010960094630718231,
					1
				],
				"metallicFactor":0,
				"roughnessFactor":0.5
			}
		},
		{
			"doubleSided":true,
			"name":"\u30de\u30c6\u30ea\u30a2\u30eb.010",
			"pbrMetallicRoughness":{
				"baseColorFactor":[
					0.013702084310352802,
					0.14126333594322205,
					0.010960094630718231,
					1
				],
				"metallicFactor":0,
				"roughnessFactor":0.5
			}
		},
		{
			"doubleSided":true,
			"name":"\u30de\u30c6\u30ea\u30a2\u30eb.025",
			"pbrMetallicRoughness":{
				"baseColorFactor":[
					0.034339822828769684,
					0.6038274168968201,
					0.7991030812263489,
					1
				],
				"metallicFactor":0,
				"roughnessFactor":0.5
			}
		},
		{
			"doubleSided":true,
			"name":"\u30de\u30c6\u30ea\u30a2\u30eb.026",
			"pbrMetallicRoughness":{
				"baseColorFactor":[
					0.034339822828769684,
					0.6038274168968201,
					0.7991030812263489,
					1
				],
				"metallicFactor":0,
				"roughnessFactor":0.5
			}
		},
		{
			"doubleSided":true,
			"name":"\u30de\u30c6\u30ea\u30a2\u30eb.007",
			"pbrMetallicRoughness":{
				"baseColorFactor":[
					0.013702084310352802,
					0.14126333594322205,
					0.010960094630718231,
					1
				],
				"metallicFactor":0,
				"roughnessFactor":0.5
			}
		},
		{
			"doubleSided":true,
			"name":"\u30de\u30c6\u30ea\u30a2\u30eb.012",
			"pbrMetallicRoughness":{
				"baseColorFactor":[
					0.013702084310352802,
					0.14126333594322205,
					0.010960094630718231,
					1
				],
				"metallicFactor":0,
				"roughnessFactor":0.5
			}
		},
		{
			"doubleSided":true,
			"name":"\u30de\u30c6\u30ea\u30a2\u30eb.011",
			"pbrMetallicRoughness":{
				"baseColorFactor":[
					0.013702084310352802,
					0.14126333594322205,
					0.010960094630718231,
					1
				],
				"metallicFactor":0,
				"roughnessFactor":0.5
			}
		},
		{
			"doubleSided":true,
			"name":"\u30de\u30c6\u30ea\u30a2\u30eb.013",
			"pbrMetallicRoughness":{
				"baseColorFactor":[
					0.013702084310352802,
					0.14126333594322205,
					0.010960094630718231,
					1
				],
				"metallicFactor":0,
				"roughnessFactor":0.5
			}
		},
		{
			"doubleSided":true,
			"name":"\u30de\u30c6\u30ea\u30a2\u30eb",
			"pbrMetallicRoughness":{
				"baseColorFactor":[
					0.022173885256052017,
					0.09084172546863556,
					0.6307573914527893,
					1
				],
				"metallicFactor":0,
				"roughnessFactor":0.5
			}
		},
		{
			"doubleSided":true,
			"name":"\u30de\u30c6\u30ea\u30a2\u30eb.020",
			"pbrMetallicRoughness":{
				"baseColorFactor":[
					0.327778160572052,
					0.012983033433556557,
					0.34191447496414185,
					1
				],
				"metallicFactor":0,
				"roughnessFactor":0.5
			}
		},
		{
			"doubleSided":true,
			"name":"\u30de\u30c6\u30ea\u30a2\u30eb.019",
			"pbrMetallicRoughness":{
				"baseColorFactor":[
					0.7991030812263489,
					0.0009105810313485563,
					0.2746773362159729,
					1
				],
				"metallicFactor":0,
				"roughnessFactor":0.5
			}
		},
		{
			"doubleSided":true,
			"name":"\u30de\u30c6\u30ea\u30a2\u30eb.018",
			"pbrMetallicRoughness":{
				"baseColorFactor":[
					0.7991030812263489,
					0.0009105810313485563,
					0.2746773362159729,
					1
				],
				"metallicFactor":0,
				"roughnessFactor":0.5
			}
		},
		{
			"doubleSided":true,
			"name":"\u30de\u30c6\u30ea\u30a2\u30eb.017",
			"pbrMetallicRoughness":{
				"baseColorFactor":[
					0.7991030812263489,
					0.0009105810313485563,
					0.2746773362159729,
					1
				],
				"metallicFactor":0,
				"roughnessFactor":0.5
			}
		}
	],
	"meshes":[
		{
			"name":"Cube",
			"primitives":[
				{
					"attributes":{
						"POSITION":0,
						"NORMAL":1,
						"TEXCOORD_0":2
					},
					"indices":3,
					"material":0
				}
			]
		},
		{
			"name":"\u5186\u67f1",
			"primitives":[
				{
					"attributes":{
						"POSITION":4,
						"NORMAL":5,
						"TEXCOORD_0":6
					},
					"indices":7,
					"material":1
				}
			]
		},
		{
			"name":"\u5186\u67f1.001",
			"primitives":[
				{
					"attributes":{
						"POSITION":8,
						"NORMAL":9,
						"TEXCOORD_0":10
					},
					"indices":11,
					"material":2
				}
			]
		},
		{
			"name":"\u5186\u67f1.002",
			"primitives":[
				{
					"attributes":{
						"POSITION":12,
						"NORMAL":13,
						"TEXCOORD_0":14
					},
					"indices":11,
					"material":3
				}
			]
		},
		{
			"name":"\u7403",
			"primitives":[
				{
					"attributes":{
						"POSITION":15,
						"NORMAL":16,
						"TEXCOORD_0":17
					},
					"indices":18,
					"material":4
				}
			]
		},
		{
			"name":"\u7403.001",
			"primitives":[
				{
					"attributes":{
						"POSITION":19,
						"NORMAL":20,
						"TEXCOORD_0":21
					},
					"indices":18,
					"material":5
				}
			]
		},
		{
			"name":"\u7acb\u65b9\u4f53",
			"primitives":[
				{
					"attributes":{
						"POSITION":22,
						"NORMAL":23,
						"TEXCOORD_0":24
					},
					"indices":25,
					"material":6
				}
			]
		},
		{
			"name":"\u5186\u67f1.003",
			"primitives":[
				{
					"attributes":{
						"POSITION":26,
						"NORMAL":27,
						"TEXCOORD_0":28
					},
					"indices":11,
					"material":7
				}
			]
		},
		{
			"name":"\u7acb\u65b9\u4f53.001",
			"primitives":[
				{
					"attributes":{
						"POSITION":29,
						"NORMAL":30,
						"TEXCOORD_0":31
					},
					"indices":32,
					"material":8
				}
			]
		},
		{
			"name":"\u5186\u67f1.004",
			"primitives":[
				{
					"attributes":{
						"POSITION":33,
						"NORMAL":34,
						"TEXCOORD_0":35
					},
					"indices":11,
					"material":9
				}
			]
		},
		{
			"name":"\u5186\u67f1.005",
			"primitives":[
				{
					"attributes":{
						"POSITION":36,
						"NORMAL":37,
						"TEXCOORD_0":38
					},
					"indices":11,
					"material":10
				}
			]
		},
		{
			"name":"\u5186\u67f1.006",
			"primitives":[
				{
					"attributes":{
						"POSITION":39,
						"NORMAL":40,
						"TEXCOORD_0":41
					},
					"indices":11,
					"material":11
				}
			]
		},
		{
			"name":"\u7acb\u65b9\u4f53.002",
			"primitives":[
				{
					"attributes":{
						"POSITION":42,
						"NORMAL":43,
						"TEXCOORD_0":44
					},
					"indices":45,
					"material":12
				}
			]
		},
		{
			"name":"\u7acb\u65b9\u4f53.003",
			"primitives":[
				{
					"attributes":{
						"POSITION":46,
						"NORMAL":47,
						"TEXCOORD_0":48
					},
					"indices":49,
					"material":13
				}
			]
		},
		{
			"name":"\u7acb\u65b9\u4f53.004",
			"primitives":[
				{
					"attributes":{
						"POSITION":50,
						"NORMAL":51,
						"TEXCOORD_0":52
					},
					"indices":49,
					"material":14
				}
			]
		},
		{
			"name":"\u7acb\u65b9\u4f53.005",
			"primitives":[
				{
					"attributes":{
						"POSITION":53,
						"NORMAL":54,
						"TEXCOORD_0":55
					},
					"indices":49,
					"material":15
				}
			]
		},
		{
			"name":"\u5186\u67f1.007",
			"primitives":[
				{
					"attributes":{
						"POSITION":56,
						"NORMAL":57,
						"TEXCOORD_0":58
					},
					"indices":59,
					"material":16
				}
			]
		},
		{
			"name":"\u5186\u67f1.008",
			"primitives":[
				{
					"attributes":{
						"POSITION":60,
						"NORMAL":61,
						"TEXCOORD_0":62
					},
					"indices":59,
					"material":17
				}
			]
		},
		{
			"name":"\u7acb\u65b9\u4f53.006",
			"primitives":[
				{
					"attributes":{
						"POSITION":63,
						"NORMAL":64,
						"TEXCOORD_0":65
					},
					"indices":49
				}
			]
		},
		{
			"name":"\u7acb\u65b9\u4f53.007",
			"primitives":[
				{
					"attributes":{
						"POSITION":66,
						"NORMAL":67,
						"TEXCOORD_0":68
					},
					"indices":49
				}
			]
		},
		{
			"name":"\u7acb\u65b9\u4f53.008",
			"primitives":[
				{
					"attributes":{
						"POSITION":69,
						"NORMAL":70,
						"TEXCOORD_0":71
					},
					"indices":49
				}
			]
		},
		{
			"name":"\u7acb\u65b9\u4f53.009",
			"primitives":[
				{
					"attributes":{
						"POSITION":72,
						"NORMAL":73,
						"TEXCOORD_0":74
					},
					"indices":32
				}
			]
		},
		{
			"name":"\u5186\u67f1.009",
			"primitives":[
				{
					"attributes":{
						"POSITION":75,
						"NORMAL":76,
						"TEXCOORD_0":77
					},
					"indices":11
				}
			]
		},
		{
			"name":"\u5186\u67f1.010",
			"primitives":[
				{
					"attributes":{
						"POSITION":78,
						"NORMAL":79,
						"TEXCOORD_0":80
					},
					"indices":11
				}
			]
		},
		{
			"name":"\u5186\u67f1.011",
			"primitives":[
				{
					"attributes":{
						"POSITION":81,
						"NORMAL":82,
						"TEXCOORD_0":83
					},
					"indices":11
				}
			]
		},
		{
			"name":"\u5186\u67f1.012",
			"primitives":[
				{
					"attributes":{
						"POSITION":84,
						"NORMAL":85,
						"TEXCOORD_0":86
					},
					"indices":11
				}
			]
		},
		{
			"name":"\u7acb\u65b9\u4f53.010",
			"primitives":[
				{
					"attributes":{
						"POSITION":87,
						"NORMAL":88,
						"TEXCOORD_0":89
					},
					"indices":32,
					"material":18
				}
			]
		},
		{
			"name":"\u7acb\u65b9\u4f53.011",
			"primitives":[
				{
					"attributes":{
						"POSITION":90,
						"NORMAL":91,
						"TEXCOORD_0":92
					},
					"indices":49,
					"material":19
				}
			]
		},
		{
			"name":"\u7acb\u65b9\u4f53.012",
			"primitives":[
				{
					"attributes":{
						"POSITION":93,
						"NORMAL":94,
						"TEXCOORD_0":95
					},
					"indices":49,
					"material":20
				}
			]
		},
		{
			"name":"\u7acb\u65b9\u4f53.013",
			"primitives":[
				{
					"attributes":{
						"POSITION":96,
						"NORMAL":97,
						"TEXCOORD_0":98
					},
					"indices":49,
					"material":21
				}
			]
		},
		{
			"name":"\u7acb\u65b9\u4f53.014",
			"primitives":[
				{
					"attributes":{
						"POSITION":99,
						"NORMAL":100,
						"TEXCOORD_0":101
					},
					"indices":49
				}
			]
		},
		{
			"name":"\u7acb\u65b9\u4f53.015",
			"primitives":[
				{
					"attributes":{
						"POSITION":102,
						"NORMAL":103,
						"TEXCOORD_0":104
					},
					"indices":49
				}
			]
		},
		{
			"name":"\u7acb\u65b9\u4f53.016",
			"primitives":[
				{
					"attributes":{
						"POSITION":105,
						"NORMAL":106,
						"TEXCOORD_0":107
					},
					"indices":49
				}
			]
		},
		{
			"name":"\u7acb\u65b9\u4f53.017",
			"primitives":[
				{
					"attributes":{
						"POSITION":108,
						"NORMAL":109,
						"TEXCOORD_0":110
					},
					"indices":32
				}
			]
		},
		{
			"name":"\u7acb\u65b9\u4f53.018",
			"primitives":[
				{
					"attributes":{
						"POSITION":111,
						"NORMAL":112,
						"TEXCOORD_0":113
					},
					"indices":114,
					"material":22
				}
			]
		},
		{
			"name":"\u5186\u67f1.013",
			"primitives":[
				{
					"attributes":{
						"POSITION":115,
						"NORMAL":116,
						"TEXCOORD_0":117
					},
					"indices":11,
					"material":23
				}
			]
		},
		{
			"name":"\u5186\u67f1.014",
			"primitives":[
				{
					"attributes":{
						"POSITION":118,
						"NORMAL":119,
						"TEXCOORD_0":120
					},
					"indices":11,
					"material":24
				}
			]
		},
		{
			"name":"\u5186\u67f1.015",
			"primitives":[
				{
					"attributes":{
						"POSITION":121,
						"NORMAL":122,
						"TEXCOORD_0":123
					},
					"indices":11,
					"material":25
				}
			]
		},
		{
			"name":"\u5186\u67f1.016",
			"primitives":[
				{
					"attributes":{
						"POSITION":124,
						"NORMAL":125,
						"TEXCOORD_0":126
					},
					"indices":11,
					"material":26
				}
			]
		},
		{
			"name":"\u5186\u67f1.017",
			"primitives":[
				{
					"attributes":{
						"POSITION":127,
						"NORMAL":128,
						"TEXCOORD_0":129
					},
					"indices":11
				}
			]
		},
		{
			"name":"\u5186\u67f1.018",
			"primitives":[
				{
					"attributes":{
						"POSITION":130,
						"NORMAL":131,
						"TEXCOORD_0":132
					},
					"indices":11
				}
			]
		},
		{
			"name":"\u5186\u67f1.019",
			"primitives":[
				{
					"attributes":{
						"POSITION":133,
						"NORMAL":134,
						"TEXCOORD_0":135
					},
					"indices":11
				}
			]
		},
		{
			"name":"\u5186\u67f1.020",
			"primitives":[
				{
					"attributes":{
						"POSITION":136,
						"NORMAL":137,
						"TEXCOORD_0":138
					},
					"indices":11
				}
			]
		}
	],
	"accessors":[
		{
			"bufferView":0,
			"componentType":5126,
			"count":182,
			"max":[
				2.143552303314209,
				1.0427409410476685,
				0.8837730884552002
			],
			"min":[
				-1.9669196605682373,
				-1,
				-1
			],
			"type":"VEC3"
		},
		{
			"bufferView":1,
			"componentType":5126,
			"count":182,
			"type":"VEC3"
		},
		{
			"bufferView":2,
			"componentType":5126,
			"count":182,
			"type":"VEC2"
		},
		{
			"bufferView":3,
			"componentType":5123,
			"count":288,
			"type":"SCALAR"
		},
		{
			"bufferView":4,
			"componentType":5126,
			"count":288,
			"max":[
				1,
				0.8429188132286072,
				1
			],
			"min":[
				-1,
				-1,
				-1
			],
			"type":"VEC3"
		},
		{
			"bufferView":5,
			"componentType":5126,
			"count":288,
			"type":"VEC3"
		},
		{
			"bufferView":6,
			"componentType":5126,
			"count":288,
			"type":"VEC2"
		},
		{
			"bufferView":7,
			"componentType":5123,
			"count":468,
			"type":"SCALAR"
		},
		{
			"bufferView":8,
			"componentType":5126,
			"count":48,
			"max":[
				1,
				1,
				1
			],
			"min":[
				-1,
				-1,
				-1
			],
			"type":"VEC3"
		},
		{
			"bufferView":9,
			"componentType":5126,
			"count":48,
			"type":"VEC3"
		},
		{
			"bufferView":10,
			"componentType":5126,
			"count":48,
			"type":"VEC2"
		},
		{
			"bufferView":11,
			"componentType":5123,
			"count":84,
			"type":"SCALAR"
		},
		{
			"bufferView":12,
			"componentType":5126,
			"count":48,
			"max":[
				1,
				1,
				1
			],
			"min":[
				-1,
				-1,
				-1
			],
			"type":"VEC3"
		},
		{
			"bufferView":13,
			"componentType":5126,
			"count":48,
			"type":"VEC3"
		},
		{
			"bufferView":14,
			"componentType":5126,
			"count":48,
			"type":"VEC2"
		},
		{
			"bufferView":15,
			"componentType":5126,
			"count":496,
			"max":[
				0.9999999403953552,
				1,
				0.9999998807907104
			],
			"min":[
				-0.9999998807907104,
				-1,
				-1
			],
			"type":"VEC3"
		},
		{
			"bufferView":16,
			"componentType":5126,
			"count":496,
			"type":"VEC3"
		},
		{
			"bufferView":17,
			"componentType":5126,
			"count":496,
			"type":"VEC2"
		},
		{
			"bufferView":18,
			"componentType":5123,
			"count":720,
			"type":"SCALAR"
		},
		{
			"bufferView":19,
			"componentType":5126,
			"count":496,
			"max":[
				0.9999999403953552,
				1,
				0.9999998807907104
			],
			"min":[
				-0.9999998807907104,
				-1,
				-1
			],
			"type":"VEC3"
		},
		{
			"bufferView":20,
			"componentType":5126,
			"count":496,
			"type":"VEC3"
		},
		{
			"bufferView":21,
			"componentType":5126,
			"count":496,
			"type":"VEC2"
		},
		{
			"bufferView":22,
			"componentType":5126,
			"count":48,
			"max":[
				1.6414058208465576,
				2.0568318367004395,
				1.3218187093734741
			],
			"min":[
				-1.6414058208465576,
				-1,
				-0.9133352637290955
			],
			"type":"VEC3"
		},
		{
			"bufferView":23,
			"componentType":5126,
			"count":48,
			"type":"VEC3"
		},
		{
			"bufferView":24,
			"componentType":5126,
			"count":48,
			"type":"VEC2"
		},
		{
			"bufferView":25,
			"componentType":5123,
			"count":72,
			"type":"SCALAR"
		},
		{
			"bufferView":26,
			"componentType":5126,
			"count":48,
			"max":[
				1,
				1,
				1
			],
			"min":[
				-1,
				-1,
				-1
			],
			"type":"VEC3"
		},
		{
			"bufferView":27,
			"componentType":5126,
			"count":48,
			"type":"VEC3"
		},
		{
			"bufferView":28,
			"componentType":5126,
			"count":48,
			"type":"VEC2"
		},
		{
			"bufferView":29,
			"componentType":5126,
			"count":60,
			"max":[
				1.3974345922470093,
				1,
				1
			],
			"min":[
				-1.4121544361114502,
				-1,
				-0.9489054083824158
			],
			"type":"VEC3"
		},
		{
			"bufferView":30,
			"componentType":5126,
			"count":60,
			"type":"VEC3"
		},
		{
			"bufferView":31,
			"componentType":5126,
			"count":60,
			"type":"VEC2"
		},
		{
			"bufferView":32,
			"componentType":5123,
			"count":96,
			"type":"SCALAR"
		},
		{
			"bufferView":33,
			"componentType":5126,
			"count":48,
			"max":[
				1,
				1,
				1
			],
			"min":[
				-1,
				-1,
				-1
			],
			"type":"VEC3"
		},
		{
			"bufferView":34,
			"componentType":5126,
			"count":48,
			"type":"VEC3"
		},
		{
			"bufferView":35,
			"componentType":5126,
			"count":48,
			"type":"VEC2"
		},
		{
			"bufferView":36,
			"componentType":5126,
			"count":48,
			"max":[
				1,
				1,
				1
			],
			"min":[
				-1,
				-1,
				-1
			],
			"type":"VEC3"
		},
		{
			"bufferView":37,
			"componentType":5126,
			"count":48,
			"type":"VEC3"
		},
		{
			"bufferView":38,
			"componentType":5126,
			"count":48,
			"type":"VEC2"
		},
		{
			"bufferView":39,
			"componentType":5126,
			"count":48,
			"max":[
				1,
				1,
				1
			],
			"min":[
				-1,
				-1,
				-1
			],
			"type":"VEC3"
		},
		{
			"bufferView":40,
			"componentType":5126,
			"count":48,
			"type":"VEC3"
		},
		{
			"bufferView":41,
			"componentType":5126,
			"count":48,
			"type":"VEC2"
		},
		{
			"bufferView":42,
			"componentType":5126,
			"count":262,
			"max":[
				1.8117438554763794,
				1.0195378065109253,
				2.0344078540802
			],
			"min":[
				-1.8117438554763794,
				-1.0195378065109253,
				-2.8630757331848145
			],
			"type":"VEC3"
		},
		{
			"bufferView":43,
			"componentType":5126,
			"count":262,
			"type":"VEC3"
		},
		{
			"bufferView":44,
			"componentType":5126,
			"count":262,
			"type":"VEC2"
		},
		{
			"bufferView":45,
			"componentType":5123,
			"count":564,
			"type":"SCALAR"
		},
		{
			"bufferView":46,
			"componentType":5126,
			"count":20,
			"max":[
				0.4930688142776489,
				0.40690144896507263,
				1.2969648838043213
			],
			"min":[
				-0.4930688142776489,
				-0.11316943168640137,
				0.2875686287879944
			],
			"type":"VEC3"
		},
		{
			"bufferView":47,
			"componentType":5126,
			"count":20,
			"type":"VEC3"
		},
		{
			"bufferView":48,
			"componentType":5126,
			"count":20,
			"type":"VEC2"
		},
		{
			"bufferView":49,
			"componentType":5123,
			"count":36,
			"type":"SCALAR"
		},
		{
			"bufferView":50,
			"componentType":5126,
			"count":20,
			"max":[
				0.4930688142776489,
				0.40690144896507263,
				1.2969648838043213
			],
			"min":[
				-0.4930688142776489,
				-0.11316943168640137,
				0.2875686287879944
			],
			"type":"VEC3"
		},
		{
			"bufferView":51,
			"componentType":5126,
			"count":20,
			"type":"VEC3"
		},
		{
			"bufferView":52,
			"componentType":5126,
			"count":20,
			"type":"VEC2"
		},
		{
			"bufferView":53,
			"componentType":5126,
			"count":20,
			"max":[
				0.4930688142776489,
				0.40690144896507263,
				1.2969648838043213
			],
			"min":[
				-0.4930688142776489,
				-0.11316943168640137,
				0.2875686287879944
			],
			"type":"VEC3"
		},
		{
			"bufferView":54,
			"componentType":5126,
			"count":20,
			"type":"VEC3"
		},
		{
			"bufferView":55,
			"componentType":5126,
			"count":20,
			"type":"VEC2"
		},
		{
			"bufferView":56,
			"componentType":5126,
			"count":184,
			"max":[
				1,
				1,
				1
			],
			"min":[
				-1,
				-1.0050647258758545,
				-1
			],
			"type":"VEC3"
		},
		{
			"bufferView":57,
			"componentType":5126,
			"count":184,
			"type":"VEC3"
		},
		{
			"bufferView":58,
			"componentType":5126,
			"count":184,
			"type":"VEC2"
		},
		{
			"bufferView":59,
			"componentType":5123,
			"count":372,
			"type":"SCALAR"
		},
		{
			"bufferView":60,
			"componentType":5126,
			"count":184,
			"max":[
				1,
				1,
				1
			],
			"min":[
				-1,
				-1.0050647258758545,
				-1
			],
			"type":"VEC3"
		},
		{
			"bufferView":61,
			"componentType":5126,
			"count":184,
			"type":"VEC3"
		},
		{
			"bufferView":62,
			"componentType":5126,
			"count":184,
			"type":"VEC2"
		},
		{
			"bufferView":63,
			"componentType":5126,
			"count":20,
			"max":[
				0.4930688142776489,
				0.40690144896507263,
				1.2969648838043213
			],
			"min":[
				-0.4930688142776489,
				-0.11316943168640137,
				0.2875686287879944
			],
			"type":"VEC3"
		},
		{
			"bufferView":64,
			"componentType":5126,
			"count":20,
			"type":"VEC3"
		},
		{
			"bufferView":65,
			"componentType":5126,
			"count":20,
			"type":"VEC2"
		},
		{
			"bufferView":66,
			"componentType":5126,
			"count":20,
			"max":[
				0.4930688142776489,
				0.40690144896507263,
				1.2969648838043213
			],
			"min":[
				-0.4930688142776489,
				-0.11316943168640137,
				0.2875686287879944
			],
			"type":"VEC3"
		},
		{
			"bufferView":67,
			"componentType":5126,
			"count":20,
			"type":"VEC3"
		},
		{
			"bufferView":68,
			"componentType":5126,
			"count":20,
			"type":"VEC2"
		},
		{
			"bufferView":69,
			"componentType":5126,
			"count":20,
			"max":[
				0.4930688142776489,
				0.40690144896507263,
				1.2969648838043213
			],
			"min":[
				-0.4930688142776489,
				-0.11316943168640137,
				0.2875686287879944
			],
			"type":"VEC3"
		},
		{
			"bufferView":70,
			"componentType":5126,
			"count":20,
			"type":"VEC3"
		},
		{
			"bufferView":71,
			"componentType":5126,
			"count":20,
			"type":"VEC2"
		},
		{
			"bufferView":72,
			"componentType":5126,
			"count":60,
			"max":[
				1.3974345922470093,
				1,
				1
			],
			"min":[
				-1.4121544361114502,
				-1,
				-0.9489054083824158
			],
			"type":"VEC3"
		},
		{
			"bufferView":73,
			"componentType":5126,
			"count":60,
			"type":"VEC3"
		},
		{
			"bufferView":74,
			"componentType":5126,
			"count":60,
			"type":"VEC2"
		},
		{
			"bufferView":75,
			"componentType":5126,
			"count":48,
			"max":[
				1,
				1,
				1
			],
			"min":[
				-1,
				-1,
				-1
			],
			"type":"VEC3"
		},
		{
			"bufferView":76,
			"componentType":5126,
			"count":48,
			"type":"VEC3"
		},
		{
			"bufferView":77,
			"componentType":5126,
			"count":48,
			"type":"VEC2"
		},
		{
			"bufferView":78,
			"componentType":5126,
			"count":48,
			"max":[
				1,
				1,
				1
			],
			"min":[
				-1,
				-1,
				-1
			],
			"type":"VEC3"
		},
		{
			"bufferView":79,
			"componentType":5126,
			"count":48,
			"type":"VEC3"
		},
		{
			"bufferView":80,
			"componentType":5126,
			"count":48,
			"type":"VEC2"
		},
		{
			"bufferView":81,
			"componentType":5126,
			"count":48,
			"max":[
				1,
				1,
				1
			],
			"min":[
				-1,
				-1,
				-1
			],
			"type":"VEC3"
		},
		{
			"bufferView":82,
			"componentType":5126,
			"count":48,
			"type":"VEC3"
		},
		{
			"bufferView":83,
			"componentType":5126,
			"count":48,
			"type":"VEC2"
		},
		{
			"bufferView":84,
			"componentType":5126,
			"count":48,
			"max":[
				1,
				1,
				1
			],
			"min":[
				-1,
				-1,
				-1
			],
			"type":"VEC3"
		},
		{
			"bufferView":85,
			"componentType":5126,
			"count":48,
			"type":"VEC3"
		},
		{
			"bufferView":86,
			"componentType":5126,
			"count":48,
			"type":"VEC2"
		},
		{
			"bufferView":87,
			"componentType":5126,
			"count":60,
			"max":[
				1.3974345922470093,
				1,
				1
			],
			"min":[
				-1.4121544361114502,
				-1,
				-0.9489054083824158
			],
			"type":"VEC3"
		},
		{
			"bufferView":88,
			"componentType":5126,
			"count":60,
			"type":"VEC3"
		},
		{
			"bufferView":89,
			"componentType":5126,
			"count":60,
			"type":"VEC2"
		},
		{
			"bufferView":90,
			"componentType":5126,
			"count":20,
			"max":[
				0.4930688142776489,
				0.40690144896507263,
				1.2969648838043213
			],
			"min":[
				-0.4930688142776489,
				-0.11316943168640137,
				0.2875686287879944
			],
			"type":"VEC3"
		},
		{
			"bufferView":91,
			"componentType":5126,
			"count":20,
			"type":"VEC3"
		},
		{
			"bufferView":92,
			"componentType":5126,
			"count":20,
			"type":"VEC2"
		},
		{
			"bufferView":93,
			"componentType":5126,
			"count":20,
			"max":[
				0.4930688142776489,
				0.40690144896507263,
				1.2969648838043213
			],
			"min":[
				-0.4930688142776489,
				-0.11316943168640137,
				0.2875686287879944
			],
			"type":"VEC3"
		},
		{
			"bufferView":94,
			"componentType":5126,
			"count":20,
			"type":"VEC3"
		},
		{
			"bufferView":95,
			"componentType":5126,
			"count":20,
			"type":"VEC2"
		},
		{
			"bufferView":96,
			"componentType":5126,
			"count":20,
			"max":[
				0.4930688142776489,
				0.40690144896507263,
				1.2969648838043213
			],
			"min":[
				-0.4930688142776489,
				-0.11316943168640137,
				0.2875686287879944
			],
			"type":"VEC3"
		},
		{
			"bufferView":97,
			"componentType":5126,
			"count":20,
			"type":"VEC3"
		},
		{
			"bufferView":98,
			"componentType":5126,
			"count":20,
			"type":"VEC2"
		},
		{
			"bufferView":99,
			"componentType":5126,
			"count":20,
			"max":[
				0.4930688142776489,
				0.40690144896507263,
				1.2969648838043213
			],
			"min":[
				-0.4930688142776489,
				-0.11316943168640137,
				0.2875686287879944
			],
			"type":"VEC3"
		},
		{
			"bufferView":100,
			"componentType":5126,
			"count":20,
			"type":"VEC3"
		},
		{
			"bufferView":101,
			"componentType":5126,
			"count":20,
			"type":"VEC2"
		},
		{
			"bufferView":102,
			"componentType":5126,
			"count":20,
			"max":[
				0.4930688142776489,
				0.40690144896507263,
				1.2969648838043213
			],
			"min":[
				-0.4930688142776489,
				-0.11316943168640137,
				0.2875686287879944
			],
			"type":"VEC3"
		},
		{
			"bufferView":103,
			"componentType":5126,
			"count":20,
			"type":"VEC3"
		},
		{
			"bufferView":104,
			"componentType":5126,
			"count":20,
			"type":"VEC2"
		},
		{
			"bufferView":105,
			"componentType":5126,
			"count":20,
			"max":[
				0.4930688142776489,
				0.40690144896507263,
				1.2969648838043213
			],
			"min":[
				-0.4930688142776489,
				-0.11316943168640137,
				0.2875686287879944
			],
			"type":"VEC3"
		},
		{
			"bufferView":106,
			"componentType":5126,
			"count":20,
			"type":"VEC3"
		},
		{
			"bufferView":107,
			"componentType":5126,
			"count":20,
			"type":"VEC2"
		},
		{
			"bufferView":108,
			"componentType":5126,
			"count":60,
			"max":[
				1.3974345922470093,
				1,
				1
			],
			"min":[
				-1.4121544361114502,
				-1,
				-0.9489054083824158
			],
			"type":"VEC3"
		},
		{
			"bufferView":109,
			"componentType":5126,
			"count":60,
			"type":"VEC3"
		},
		{
			"bufferView":110,
			"componentType":5126,
			"count":60,
			"type":"VEC2"
		},
		{
			"bufferView":111,
			"componentType":5126,
			"count":48,
			"max":[
				1,
				2.0568318367004395,
				0.749764621257782
			],
			"min":[
				-1,
				-1,
				-0.044521868228912354
			],
			"type":"VEC3"
		},
		{
			"bufferView":112,
			"componentType":5126,
			"count":48,
			"type":"VEC3"
		},
		{
			"bufferView":113,
			"componentType":5126,
			"count":48,
			"type":"VEC2"
		},
		{
			"bufferView":114,
			"componentType":5123,
			"count":72,
			"type":"SCALAR"
		},
		{
			"bufferView":115,
			"componentType":5126,
			"count":48,
			"max":[
				1,
				1,
				1
			],
			"min":[
				-1,
				-1,
				-1
			],
			"type":"VEC3"
		},
		{
			"bufferView":116,
			"componentType":5126,
			"count":48,
			"type":"VEC3"
		},
		{
			"bufferView":117,
			"componentType":5126,
			"count":48,
			"type":"VEC2"
		},
		{
			"bufferView":118,
			"componentType":5126,
			"count":48,
			"max":[
				1,
				1,
				1
			],
			"min":[
				-1,
				-1,
				-1
			],
			"type":"VEC3"
		},
		{
			"bufferView":119,
			"componentType":5126,
			"count":48,
			"type":"VEC3"
		},
		{
			"bufferView":120,
			"componentType":5126,
			"count":48,
			"type":"VEC2"
		},
		{
			"bufferView":121,
			"componentType":5126,
			"count":48,
			"max":[
				1,
				1,
				1
			],
			"min":[
				-1,
				-1,
				-1
			],
			"type":"VEC3"
		},
		{
			"bufferView":122,
			"componentType":5126,
			"count":48,
			"type":"VEC3"
		},
		{
			"bufferView":123,
			"componentType":5126,
			"count":48,
			"type":"VEC2"
		},
		{
			"bufferView":124,
			"componentType":5126,
			"count":48,
			"max":[
				1,
				1,
				1
			],
			"min":[
				-1,
				-1,
				-1
			],
			"type":"VEC3"
		},
		{
			"bufferView":125,
			"componentType":5126,
			"count":48,
			"type":"VEC3"
		},
		{
			"bufferView":126,
			"componentType":5126,
			"count":48,
			"type":"VEC2"
		},
		{
			"bufferView":127,
			"componentType":5126,
			"count":48,
			"max":[
				1,
				1,
				1
			],
			"min":[
				-1,
				-1,
				-1
			],
			"type":"VEC3"
		},
		{
			"bufferView":128,
			"componentType":5126,
			"count":48,
			"type":"VEC3"
		},
		{
			"bufferView":129,
			"componentType":5126,
			"count":48,
			"type":"VEC2"
		},
		{
			"bufferView":130,
			"componentType":5126,
			"count":48,
			"max":[
				1,
				1,
				1
			],
			"min":[
				-1,
				-1,
				-1
			],
			"type":"VEC3"
		},
		{
			"bufferView":131,
			"componentType":5126,
			"count":48,
			"type":"VEC3"
		},
		{
			"bufferView":132,
			"componentType":5126,
			"count":48,
			"type":"VEC2"
		},
		{
			"bufferView":133,
			"componentType":5126,
			"count":48,
			"max":[
				1,
				1,
				1
			],
			"min":[
				-1,
				-1,
				-1
			],
			"type":"VEC3"
		},
		{
			"bufferView":134,
			"componentType":5126,
			"count":48,
			"type":"VEC3"
		},
		{
			"bufferView":135,
			"componentType":5126,
			"count":48,
			"type":"VEC2"
		},
		{
			"bufferView":136,
			"componentType":5126,
			"count":48,
			"max":[
				1,
				1,
				1
			],
			"min":[
				-1,
				-1,
				-1
			],
			"type":"VEC3"
		},
		{
			"bufferView":137,
			"componentType":5126,
			"count":48,
			"type":"VEC3"
		},
		{
			"bufferView":138,
			"componentType":5126,
			"count":48,
			"type":"VEC2"
		}
	],
	"bufferViews":[
		{
			"buffer":0,
			"byteLength":2184,
			"byteOffset":0,
			"target":34962
		},
		{
			"buffer":0,
			"byteLength":2184,
			"byteOffset":2184,
			"target":34962
		},
		{
			"buffer":0,
			"byteLength":1456,
			"byteOffset":4368,
			"target":34962
		},
		{
			"buffer":0,
			"byteLength":576,
			"byteOffset":5824,
			"target":34963
		},
		{
			"buffer":0,
			"byteLength":3456,
			"byteOffset":6400,
			"target":34962
		},
		{
			"buffer":0,
			"byteLength":3456,
			"byteOffset":9856,
			"target":34962
		},
		{
			"buffer":0,
			"byteLength":2304,
			"byteOffset":13312,
			"target":34962
		},
		{
			"buffer":0,
			"byteLength":936,
			"byteOffset":15616,
			"target":34963
		},
		{
			"buffer":0,
			"byteLength":576,
			"byteOffset":16552,
			"target":34962
		},
		{
			"buffer":0,
			"byteLength":576,
			"byteOffset":17128,
			"target":34962
		},
		{
			"buffer":0,
			"byteLength":384,
			"byteOffset":17704,
			"target":34962
		},
		{
			"buffer":0,
			"byteLength":168,
			"byteOffset":18088,
			"target":34963
		},
		{
			"buffer":0,
			"byteLength":576,
			"byteOffset":18256,
			"target":34962
		},
		{
			"buffer":0,
			"byteLength":576,
			"byteOffset":18832,
			"target":34962
		},
		{
			"buffer":0,
			"byteLength":384,
			"byteOffset":19408,
			"target":34962
		},
		{
			"buffer":0,
			"byteLength":5952,
			"byteOffset":19792,
			"target":34962
		},
		{
			"buffer":0,
			"byteLength":5952,
			"byteOffset":25744,
			"target":34962
		},
		{
			"buffer":0,
			"byteLength":3968,
			"byteOffset":31696,
			"target":34962
		},
		{
			"buffer":0,
			"byteLength":1440,
			"byteOffset":35664,
			"target":34963
		},
		{
			"buffer":0,
			"byteLength":5952,
			"byteOffset":37104,
			"target":34962
		},
		{
			"buffer":0,
			"byteLength":5952,
			"byteOffset":43056,
			"target":34962
		},
		{
			"buffer":0,
			"byteLength":3968,
			"byteOffset":49008,
			"target":34962
		},
		{
			"buffer":0,
			"byteLength":576,
			"byteOffset":52976,
			"target":34962
		},
		{
			"buffer":0,
			"byteLength":576,
			"byteOffset":53552,
			"target":34962
		},
		{
			"buffer":0,
			"byteLength":384,
			"byteOffset":54128,
			"target":34962
		},
		{
			"buffer":0,
			"byteLength":144,
			"byteOffset":54512,
			"target":34963
		},
		{
			"buffer":0,
			"byteLength":576,
			"byteOffset":54656,
			"target":34962
		},
		{
			"buffer":0,
			"byteLength":576,
			"byteOffset":55232,
			"target":34962
		},
		{
			"buffer":0,
			"byteLength":384,
			"byteOffset":55808,
			"target":34962
		},
		{
			"buffer":0,
			"byteLength":720,
			"byteOffset":56192,
			"target":34962
		},
		{
			"buffer":0,
			"byteLength":720,
			"byteOffset":56912,
			"target":34962
		},
		{
			"buffer":0,
			"byteLength":480,
			"byteOffset":57632,
			"target":34962
		},
		{
			"buffer":0,
			"byteLength":192,
			"byteOffset":58112,
			"target":34963
		},
		{
			"buffer":0,
			"byteLength":576,
			"byteOffset":58304,
			"target":34962
		},
		{
			"buffer":0,
			"byteLength":576,
			"byteOffset":58880,
			"target":34962
		},
		{
			"buffer":0,
			"byteLength":384,
			"byteOffset":59456,
			"target":34962
		},
		{
			"buffer":0,
			"byteLength":576,
			"byteOffset":59840,
			"target":34962
		},
		{
			"buffer":0,
			"byteLength":576,
			"byteOffset":60416,
			"target":34962
		},
		{
			"buffer":0,
			"byteLength":384,
			"byteOffset":60992,
			"target":34962
		},
		{
			"buffer":0,
			"byteLength":576,
			"byteOffset":61376,
			"target":34962
		},
		{
			"buffer":0,
			"byteLength":576,
			"byteOffset":61952,
			"target":34962
		},
		{
			"buffer":0,
			"byteLength":384,
			"byteOffset":62528,
			"target":34962
		},
		{
			"buffer":0,
			"byteLength":3144,
			"byteOffset":62912,
			"target":34962
		},
		{
			"buffer":0,
			"byteLength":3144,
			"byteOffset":66056,
			"target":34962
		},
		{
			"buffer":0,
			"byteLength":2096,
			"byteOffset":69200,
			"target":34962
		},
		{
			"buffer":0,
			"byteLength":1128,
			"byteOffset":71296,
			"target":34963
		},
		{
			"buffer":0,
			"byteLength":240,
			"byteOffset":72424,
			"target":34962
		},
		{
			"buffer":0,
			"byteLength":240,
			"byteOffset":72664,
			"target":34962
		},
		{
			"buffer":0,
			"byteLength":160,
			"byteOffset":72904,
			"target":34962
		},
		{
			"buffer":0,
			"byteLength":72,
			"byteOffset":73064,
			"target":34963
		},
		{
			"buffer":0,
			"byteLength":240,
			"byteOffset":73136,
			"target":34962
		},
		{
			"buffer":0,
			"byteLength":240,
			"byteOffset":73376,
			"target":34962
		},
		{
			"buffer":0,
			"byteLength":160,
			"byteOffset":73616,
			"target":34962
		},
		{
			"buffer":0,
			"byteLength":240,
			"byteOffset":73776,
			"target":34962
		},
		{
			"buffer":0,
			"byteLength":240,
			"byteOffset":74016,
			"target":34962
		},
		{
			"buffer":0,
			"byteLength":160,
			"byteOffset":74256,
			"target":34962
		},
		{
			"buffer":0,
			"byteLength":2208,
			"byteOffset":74416,
			"target":34962
		},
		{
			"buffer":0,
			"byteLength":2208,
			"byteOffset":76624,
			"target":34962
		},
		{
			"buffer":0,
			"byteLength":1472,
			"byteOffset":78832,
			"target":34962
		},
		{
			"buffer":0,
			"byteLength":744,
			"byteOffset":80304,
			"target":34963
		},
		{
			"buffer":0,
			"byteLength":2208,
			"byteOffset":81048,
			"target":34962
		},
		{
			"buffer":0,
			"byteLength":2208,
			"byteOffset":83256,
			"target":34962
		},
		{
			"buffer":0,
			"byteLength":1472,
			"byteOffset":85464,
			"target":34962
		},
		{
			"buffer":0,
			"byteLength":240,
			"byteOffset":86936,
			"target":34962
		},
		{
			"buffer":0,
			"byteLength":240,
			"byteOffset":87176,
			"target":34962
		},
		{
			"buffer":0,
			"byteLength":160,
			"byteOffset":87416,
			"target":34962
		},
		{
			"buffer":0,
			"byteLength":240,
			"byteOffset":87576,
			"target":34962
		},
		{
			"buffer":0,
			"byteLength":240,
			"byteOffset":87816,
			"target":34962
		},
		{
			"buffer":0,
			"byteLength":160,
			"byteOffset":88056,
			"target":34962
		},
		{
			"buffer":0,
			"byteLength":240,
			"byteOffset":88216,
			"target":34962
		},
		{
			"buffer":0,
			"byteLength":240,
			"byteOffset":88456,
			"target":34962
		},
		{
			"buffer":0,
			"byteLength":160,
			"byteOffset":88696,
			"target":34962
		},
		{
			"buffer":0,
			"byteLength":720,
			"byteOffset":88856,
			"target":34962
		},
		{
			"buffer":0,
			"byteLength":720,
			"byteOffset":89576,
			"target":34962
		},
		{
			"buffer":0,
			"byteLength":480,
			"byteOffset":90296,
			"target":34962
		},
		{
			"buffer":0,
			"byteLength":576,
			"byteOffset":90776,
			"target":34962
		},
		{
			"buffer":0,
			"byteLength":576,
			"byteOffset":91352,
			"target":34962
		},
		{
			"buffer":0,
			"byteLength":384,
			"byteOffset":91928,
			"target":34962
		},
		{
			"buffer":0,
			"byteLength":576,
			"byteOffset":92312,
			"target":34962
		},
		{
			"buffer":0,
			"byteLength":576,
			"byteOffset":92888,
			"target":34962
		},
		{
			"buffer":0,
			"byteLength":384,
			"byteOffset":93464,
			"target":34962
		},
		{
			"buffer":0,
			"byteLength":576,
			"byteOffset":93848,
			"target":34962
		},
		{
			"buffer":0,
			"byteLength":576,
			"byteOffset":94424,
			"target":34962
		},
		{
			"buffer":0,
			"byteLength":384,
			"byteOffset":95000,
			"target":34962
		},
		{
			"buffer":0,
			"byteLength":576,
			"byteOffset":95384,
			"target":34962
		},
		{
			"buffer":0,
			"byteLength":576,
			"byteOffset":95960,
			"target":34962
		},
		{
			"buffer":0,
			"byteLength":384,
			"byteOffset":96536,
			"target":34962
		},
		{
			"buffer":0,
			"byteLength":720,
			"byteOffset":96920,
			"target":34962
		},
		{
			"buffer":0,
			"byteLength":720,
			"byteOffset":97640,
			"target":34962
		},
		{
			"buffer":0,
			"byteLength":480,
			"byteOffset":98360,
			"target":34962
		},
		{
			"buffer":0,
			"byteLength":240,
			"byteOffset":98840,
			"target":34962
		},
		{
			"buffer":0,
			"byteLength":240,
			"byteOffset":99080,
			"target":34962
		},
		{
			"buffer":0,
			"byteLength":160,
			"byteOffset":99320,
			"target":34962
		},
		{
			"buffer":0,
			"byteLength":240,
			"byteOffset":99480,
			"target":34962
		},
		{
			"buffer":0,
			"byteLength":240,
			"byteOffset":99720,
			"target":34962
		},
		{
			"buffer":0,
			"byteLength":160,
			"byteOffset":99960,
			"target":34962
		},
		{
			"buffer":0,
			"byteLength":240,
			"byteOffset":100120,
			"target":34962
		},
		{
			"buffer":0,
			"byteLength":240,
			"byteOffset":100360,
			"target":34962
		},
		{
			"buffer":0,
			"byteLength":160,
			"byteOffset":100600,
			"target":34962
		},
		{
			"buffer":0,
			"byteLength":240,
			"byteOffset":100760,
			"target":34962
		},
		{
			"buffer":0,
			"byteLength":240,
			"byteOffset":101000,
			"target":34962
		},
		{
			"buffer":0,
			"byteLength":160,
			"byteOffset":101240,
			"target":34962
		},
		{
			"buffer":0,
			"byteLength":240,
			"byteOffset":101400,
			"target":34962
		},
		{
			"buffer":0,
			"byteLength":240,
			"byteOffset":101640,
			"target":34962
		},
		{
			"buffer":0,
			"byteLength":160,
			"byteOffset":101880,
			"target":34962
		},
		{
			"buffer":0,
			"byteLength":240,
			"byteOffset":102040,
			"target":34962
		},
		{
			"buffer":0,
			"byteLength":240,
			"byteOffset":102280,
			"target":34962
		},
		{
			"buffer":0,
			"byteLength":160,
			"byteOffset":102520,
			"target":34962
		},
		{
			"buffer":0,
			"byteLength":720,
			"byteOffset":102680,
			"target":34962
		},
		{
			"buffer":0,
			"byteLength":720,
			"byteOffset":103400,
			"target":34962
		},
		{
			"buffer":0,
			"byteLength":480,
			"byteOffset":104120,
			"target":34962
		},
		{
			"buffer":0,
			"byteLength":576,
			"byteOffset":104600,
			"target":34962
		},
		{
			"buffer":0,
			"byteLength":576,
			"byteOffset":105176,
			"target":34962
		},
		{
			"buffer":0,
			"byteLength":384,
			"byteOffset":105752,
			"target":34962
		},
		{
			"buffer":0,
			"byteLength":144,
			"byteOffset":106136,
			"target":34963
		},
		{
			"buffer":0,
			"byteLength":576,
			"byteOffset":106280,
			"target":34962
		},
		{
			"buffer":0,
			"byteLength":576,
			"byteOffset":106856,
			"target":34962
		},
		{
			"buffer":0,
			"byteLength":384,
			"byteOffset":107432,
			"target":34962
		},
		{
			"buffer":0,
			"byteLength":576,
			"byteOffset":107816,
			"target":34962
		},
		{
			"buffer":0,
			"byteLength":576,
			"byteOffset":108392,
			"target":34962
		},
		{
			"buffer":0,
			"byteLength":384,
			"byteOffset":108968,
			"target":34962
		},
		{
			"buffer":0,
			"byteLength":576,
			"byteOffset":109352,
			"target":34962
		},
		{
			"buffer":0,
			"byteLength":576,
			"byteOffset":109928,
			"target":34962
		},
		{
			"buffer":0,
			"byteLength":384,
			"byteOffset":110504,
			"target":34962
		},
		{
			"buffer":0,
			"byteLength":576,
			"byteOffset":110888,
			"target":34962
		},
		{
			"buffer":0,
			"byteLength":576,
			"byteOffset":111464,
			"target":34962
		},
		{
			"buffer":0,
			"byteLength":384,
			"byteOffset":112040,
			"target":34962
		},
		{
			"buffer":0,
			"byteLength":576,
			"byteOffset":112424,
			"target":34962
		},
		{
			"buffer":0,
			"byteLength":576,
			"byteOffset":113000,
			"target":34962
		},
		{
			"buffer":0,
			"byteLength":384,
			"byteOffset":113576,
			"target":34962
		},
		{
			"buffer":0,
			"byteLength":576,
			"byteOffset":113960,
			"target":34962
		},
		{
			"buffer":0,
			"byteLength":576,
			"byteOffset":114536,
			"target":34962
		},
		{
			"buffer":0,
			"byteLength":384,
			"byteOffset":115112,
			"target":34962
		},
		{
			"buffer":0,
			"byteLength":576,
			"byteOffset":115496,
			"target":34962
		},
		{
			"buffer":0,
			"byteLength":576,
			"byteOffset":116072,
			"target":34962
		},
		{
			"buffer":0,
			"byteLength":384,
			"byteOffset":116648,
			"target":34962
		},
		{
			"buffer":0,
			"byteLength":576,
			"byteOffset":117032,
			"target":34962
		},
		{
			"buffer":0,
			"byteLength":576,
			"byteOffset":117608,
			"target":34962
		},
		{
			"buffer":0,
			"byteLength":384,
			"byteOffset":118184,
			"target":34962
		}
	],
	"buffers":[
		{
			"byteLength":118568,
			"uri":"ship.bin"
		}
	]
}
