{
	"asset":{
		"generator":"Khronos glTF Blender I/O v5.1.19",
		"version":"2.0"
	},
	"scene":0,
	"scenes":[
		{
			"name":"Scene",
			"nodes":[
				0
			]
		}
	],
	"nodes":[
		{
			"mesh":0,
			"name":"building-j"
		}
	],
	"materials":[
		{
			"doubleSided":true,
			"name":"colormap",
			"pbrMetallicRoughness":{
				"baseColorTexture":{
					"index":0
				},
				"metallicFactor":0
			}
		}
	],
	"meshes":[
		{
			"name":"building-j",
			"primitives":[
				{
					"attributes":{
						"POSITION":0,
						"NORMAL":1,
						"TEXCOORD_0":2
					},
					"indices":3,
					"material":0
				}
			]
		}
	],
	"textures":[
		{
			"sampler":0,
			"source":0
		}
	],
	"images":[
		{
			"mimeType":"image/png",
			"name":"colormap",
			"uri":"colormap.png"
		}
	],
	"accessors":[
		{
			"bufferView":0,
			"componentType":5126,
			"count":1529,
			"max":[
				0.22684648633003235,
				0.43057289719581604,
				0.30712369084358215
			],
			"min":[
				-0.2864644229412079,
				6.496905494585034e-17,
				-0.3428763151168823
			],
			"type":"VEC3"
		},
		{
			"bufferView":1,
			"componentType":5126,
			"count":1529,
			"type":"VEC3"
		},
		{
			"bufferView":2,
			"componentType":5126,
			"count":1529,
			"type":"VEC2"
		},
		{
			"bufferView":3,
			"componentType":5123,
			"count":2658,
			"type":"SCALAR"
		}
	],
	"bufferViews":[
		{
			"buffer":0,
			"byteLength":18348,
			"byteOffset":0,
			"target":34962
		},
		{
			"buffer":0,
			"byteLength":18348,
			"byteOffset":18348,
			"target":34962
		},
		{
			"buffer":0,
			"byteLength":12232,
			"byteOffset":36696,
			"target":34962
		},
		{
			"buffer":0,
			"byteLength":5316,
			"byteOffset":48928,
			"target":34963
		}
	],
	"samplers":[
		{
			"magFilter":9729,
			"minFilter":9987
		}
	],
	"buffers":[
		{
			"byteLength":54244,
			"uri":"collection_Point.bin"
		}
	]
}
