{
	"asset":{
		"generator":"Khronos glTF Blender I/O v5.1.19",
		"version":"2.0"
	},
	"extensionsUsed":[
		"KHR_materials_specular",
		"KHR_materials_ior"
	],
	"scene":0,
	"scenes":[
		{
			"name":"Scene",
			"nodes":[
				0,
				1,
				2,
				3,
				4
			]
		}
	],
	"nodes":[
		{
			"mesh":0,
			"name":"road-bridge-canal_Cube.210",
			"rotation":[
				0.7071068286895752,
				0,
				0,
				0.7071068286895752
			]
		},
		{
			"mesh":1,
			"name":"COL1",
			"scale":[
				3.9929330348968506,
				0.5388930439949036,
				3.97552490234375
			],
			"translation":[
				0,
				-0.504838764667511,
				0
			]
		},
		{
			"mesh":2,
			"name":"COL2",
			"scale":[
				3.0884928703308105,
				0.26343512535095215,
				3.97552490234375
			],
			"translation":[
				0,
				2.853626012802124,
				0
			]
		},
		{
			"mesh":3,
			"name":"COL3",
			"scale":[
				3.9929330348968506,
				1.720156192779541,
				1.049587368965149
			],
			"translation":[
				0,
				1.4009274244308472,
				-2.9829602241516113
			]
		},
		{
			"mesh":4,
			"name":"COL4",
			"scale":[
				3.9929330348968506,
				1.6620198488235474,
				1.0207587480545044
			],
			"translation":[
				0,
				1.4446303844451904,
				3.004033088684082
			]
		}
	],
	"materials":[
		{
			"doubleSided":true,
			"extensions":{
				"KHR_materials_specular":{
					"specularColorFactor":[
						1.600000023841858,
						1.600000023841858,
						1.600000023841858
					]
				},
				"KHR_materials_ior":{
					"ior":1
				}
			},
			"name":"basecolors.012",
			"pbrMetallicRoughness":{
				"baseColorTexture":{
					"index":0
				},
				"metallicFactor":0,
				"roughnessFactor":0.7234668731689453
			}
		}
	],
	"meshes":[
		{
			"name":"road-bridge-canal_Cube.210",
			"primitives":[
				{
					"attributes":{
						"POSITION":0,
						"NORMAL":1,
						"TEXCOORD_0":2
					},
					"indices":3,
					"material":0
				}
			]
		},
		{
			"name":"\u7acb\u65b9\u4f53",
			"primitives":[
				{
					"attributes":{
						"POSITION":4,
						"NORMAL":5,
						"TEXCOORD_0":6
					},
					"indices":7
				}
			]
		},
		{
			"name":"\u7acb\u65b9\u4f53.001",
			"primitives":[
				{
					"attributes":{
						"POSITION":8,
						"NORMAL":9,
						"TEXCOORD_0":10
					},
					"indices":7
				}
			]
		},
		{
			"name":"\u7acb\u65b9\u4f53.002",
			"primitives":[
				{
					"attributes":{
						"POSITION":11,
						"NORMAL":12,
						"TEXCOORD_0":13
					},
					"indices":7
				}
			]
		},
		{
			"name":"\u7acb\u65b9\u4f53.003",
			"primitives":[
				{
					"attributes":{
						"POSITION":14,
						"NORMAL":15,
						"TEXCOORD_0":16
					},
					"indices":7
				}
			]
		}
	],
	"textures":[
		{
			"sampler":0,
			"source":0
		}
	],
	"images":[
		{
			"mimeType":"image/jpeg",
			"name":"basetexture",
			"uri":"basetexture.jpg"
		}
	],
	"accessors":[
		{
			"bufferView":0,
			"componentType":5126,
			"count":296,
			"max":[
				4.000001907348633,
				3.9999990463256836,
				1
			],
			"min":[
				-4.000001907348633,
				-3.9999990463256836,
				-3.0999999046325684
			],
			"type":"VEC3"
		},
		{
			"bufferView":1,
			"componentType":5126,
			"count":296,
			"type":"VEC3"
		},
		{
			"bufferView":2,
			"componentType":5126,
			"count":296,
			"type":"VEC2"
		},
		{
			"bufferView":3,
			"componentType":5123,
			"count":450,
			"type":"SCALAR"
		},
		{
			"bufferView":4,
			"componentType":5126,
			"count":24,
			"max":[
				1,
				1,
				1
			],
			"min":[
				-1,
				-1,
				-1
			],
			"type":"VEC3"
		},
		{
			"bufferView":5,
			"componentType":5126,
			"count":24,
			"type":"VEC3"
		},
		{
			"bufferView":6,
			"componentType":5126,
			"count":24,
			"type":"VEC2"
		},
		{
			"bufferView":7,
			"componentType":5123,
			"count":36,
			"type":"SCALAR"
		},
		{
			"bufferView":8,
			"componentType":5126,
			"count":24,
			"max":[
				1,
				1,
				1
			],
			"min":[
				-1,
				-1,
				-1
			],
			"type":"VEC3"
		},
		{
			"bufferView":9,
			"componentType":5126,
			"count":24,
			"type":"VEC3"
		},
		{
			"bufferView":10,
			"componentType":5126,
			"count":24,
			"type":"VEC2"
		},
		{
			"bufferView":11,
			"componentType":5126,
			"count":24,
			"max":[
				1,
				1,
				1
			],
			"min":[
				-1,
				-1,
				-1
			],
			"type":"VEC3"
		},
		{
			"bufferView":12,
			"componentType":5126,
			"count":24,
			"type":"VEC3"
		},
		{
			"bufferView":13,
			"componentType":5126,
			"count":24,
			"type":"VEC2"
		},
		{
			"bufferView":14,
			"componentType":5126,
			"count":24,
			"max":[
				1,
				1,
				1
			],
			"min":[
				-1,
				-1,
				-1
			],
			"type":"VEC3"
		},
		{
			"bufferView":15,
			"componentType":5126,
			"count":24,
			"type":"VEC3"
		},
		{
			"bufferView":16,
			"componentType":5126,
			"count":24,
			"type":"VEC2"
		}
	],
	"bufferViews":[
		{
			"buffer":0,
			"byteLength":3552,
			"byteOffset":0,
			"target":34962
		},
		{
			"buffer":0,
			"byteLength":3552,
			"byteOffset":3552,
			"target":34962
		},
		{
			"buffer":0,
			"byteLength":2368,
			"byteOffset":7104,
			"target":34962
		},
		{
			"buffer":0,
			"byteLength":900,
			"byteOffset":9472,
			"target":34963
		},
		{
			"buffer":0,
			"byteLength":288,
			"byteOffset":10372,
			"target":34962
		},
		{
			"buffer":0,
			"byteLength":288,
			"byteOffset":10660,
			"target":34962
		},
		{
			"buffer":0,
			"byteLength":192,
			"byteOffset":10948,
			"target":34962
		},
		{
			"buffer":0,
			"byteLength":72,
			"byteOffset":11140,
			"target":34963
		},
		{
			"buffer":0,
			"byteLength":288,
			"byteOffset":11212,
			"target":34962
		},
		{
			"buffer":0,
			"byteLength":288,
			"byteOffset":11500,
			"target":34962
		},
		{
			"buffer":0,
			"byteLength":192,
			"byteOffset":11788,
			"target":34962
		},
		{
			"buffer":0,
			"byteLength":288,
			"byteOffset":11980,
			"target":34962
		},
		{
			"buffer":0,
			"byteLength":288,
			"byteOffset":12268,
			"target":34962
		},
		{
			"buffer":0,
			"byteLength":192,
			"byteOffset":12556,
			"target":34962
		},
		{
			"buffer":0,
			"byteLength":288,
			"byteOffset":12748,
			"target":34962
		},
		{
			"buffer":0,
			"byteLength":288,
			"byteOffset":13036,
			"target":34962
		},
		{
			"buffer":0,
			"byteLength":192,
			"byteOffset":13324,
			"target":34962
		}
	],
	"samplers":[
		{
			"magFilter":9729,
			"minFilter":9987
		}
	],
	"buffers":[
		{
			"byteLength":13516,
			"uri":"map_road_bridge_canal.bin"
		}
	]
}
