{
	"asset":{
		"generator":"Khronos glTF Blender I/O v5.1.19",
		"version":"2.0"
	},
	"extensionsUsed":[
		"KHR_materials_specular",
		"KHR_materials_ior"
	],
	"scene":0,
	"scenes":[
		{
			"name":"Scene",
			"nodes":[
				0
			]
		}
	],
	"nodes":[
		{
			"mesh":0,
			"name":"house-country_Cube.026",
			"rotation":[
				0.7071068286895752,
				0,
				0,
				0.7071068286895752
			],
			"scale":[
				0.10000002384185791,
				0.10000002384185791,
				0.10000002384185791
			],
			"translation":[
				0,
				-0.1953425109386444,
				0
			]
		}
	],
	"materials":[
		{
			"doubleSided":true,
			"extensions":{
				"KHR_materials_specular":{
					"specularFactor":0.019999999552965164
				},
				"KHR_materials_ior":{
					"ior":1
				}
			},
			"name":"basecolors",
			"pbrMetallicRoughness":{
				"baseColorTexture":{
					"index":0
				},
				"metallicFactor":0,
				"roughnessFactor":0.6900347471237183
			}
		}
	],
	"meshes":[
		{
			"name":"house-country_Cube.026",
			"primitives":[
				{
					"attributes":{
						"POSITION":0,
						"NORMAL":1,
						"TEXCOORD_0":2
					},
					"indices":3,
					"material":0
				}
			]
		}
	],
	"textures":[
		{
			"sampler":0,
			"source":0
		}
	],
	"images":[
		{
			"mimeType":"image/jpeg",
			"name":"buildings-houses_v1",
			"uri":"buildings-houses_v1.jpg"
		}
	],
	"accessors":[
		{
			"bufferView":0,
			"componentType":5126,
			"count":439,
			"max":[
				3.407296895980835,
				4.000000953674316,
				-1.9999990463256836
			],
			"min":[
				-3.044558048248291,
				-2.553061008453369,
				-5.491318225860596
			],
			"type":"VEC3"
		},
		{
			"bufferView":1,
			"componentType":5126,
			"count":439,
			"type":"VEC3"
		},
		{
			"bufferView":2,
			"componentType":5126,
			"count":439,
			"type":"VEC2"
		},
		{
			"bufferView":3,
			"componentType":5123,
			"count":738,
			"type":"SCALAR"
		}
	],
	"bufferViews":[
		{
			"buffer":0,
			"byteLength":5268,
			"byteOffset":0,
			"target":34962
		},
		{
			"buffer":0,
			"byteLength":5268,
			"byteOffset":5268,
			"target":34962
		},
		{
			"buffer":0,
			"byteLength":3512,
			"byteOffset":10536,
			"target":34962
		},
		{
			"buffer":0,
			"byteLength":1476,
			"byteOffset":14048,
			"target":34963
		}
	],
	"samplers":[
		{
			"magFilter":9729,
			"minFilter":9987
		}
	],
	"buffers":[
		{
			"byteLength":15524,
			"uri":"map_house_country.bin"
		}
	]
}
