{
	"asset":{
		"generator":"Khronos glTF Blender I/O v5.1.19",
		"version":"2.0"
	},
	"scene":0,
	"scenes":[
		{
			"name":"Scene",
			"nodes":[
				0,
				1,
				2
			]
		}
	],
	"nodes":[
		{
			"mesh":0,
			"name":"car-van-red_Cube.624"
		},
		{
			"mesh":1,
			"name":"COL1"
		},
		{
			"mesh":2,
			"name":"\u5e73\u9762",
			"rotation":[
				0.7071068286895752,
				0,
				0,
				0.7071068286895752
			],
			"translation":[
				0,
				0.06540645658969879,
				-0.04452669620513916
			]
		}
	],
	"materials":[
		{
			"doubleSided":true,
			"name":"carmaterial_red",
			"pbrMetallicRoughness":{
				"baseColorFactor":[
					0.6392819881439209,
					0.05781799927353859,
					0.03614899888634682,
					1
				],
				"metallicFactor":0,
				"roughnessFactor":0.6900347471237183
			}
		},
		{
			"doubleSided":true,
			"name":"windows",
			"pbrMetallicRoughness":{
				"baseColorFactor":[
					0.22351999580860138,
					0.45107799768447876,
					0.6399999856948853,
					1
				],
				"metallicFactor":0,
				"roughnessFactor":0.6900347471237183
			}
		},
		{
			"doubleSided":true,
			"name":"lights",
			"pbrMetallicRoughness":{
				"baseColorFactor":[
					0.6399999856948853,
					0.6314700245857239,
					0.5094929933547974,
					1
				],
				"metallicFactor":0,
				"roughnessFactor":0.6900347471237183
			}
		},
		{
			"doubleSided":true,
			"name":"metal",
			"pbrMetallicRoughness":{
				"baseColorFactor":[
					0.3583829998970032,
					0.3583829998970032,
					0.3583829998970032,
					1
				],
				"metallicFactor":0,
				"roughnessFactor":0.6900347471237183
			}
		},
		{
			"doubleSided":true,
			"name":"tires",
			"pbrMetallicRoughness":{
				"baseColorFactor":[
					0.020315000787377357,
					0.020315000787377357,
					0.020315000787377357,
					1
				],
				"metallicFactor":0,
				"roughnessFactor":0.6900347471237183
			}
		},
		{
			"doubleSided":true,
			"name":"lights.red",
			"pbrMetallicRoughness":{
				"baseColorFactor":[
					0.800000011920929,
					0.005716000217944384,
					0.00866399984806776,
					1
				],
				"metallicFactor":0,
				"roughnessFactor":0.6900347471237183
			}
		},
		{
			"doubleSided":true,
			"name":"lights.orange",
			"pbrMetallicRoughness":{
				"baseColorFactor":[
					0.800000011920929,
					0.2475149929523468,
					0.007284000050276518,
					1
				],
				"metallicFactor":0,
				"roughnessFactor":0.6900347471237183
			}
		},
		{
			"doubleSided":true,
			"name":"\u30de\u30c6\u30ea\u30a2\u30eb.001",
			"pbrMetallicRoughness":{
				"baseColorTexture":{
					"index":0
				},
				"metallicFactor":0,
				"roughnessFactor":0.5
			}
		}
	],
	"meshes":[
		{
			"name":"car-van-red_Cube.624",
			"primitives":[
				{
					"attributes":{
						"POSITION":0,
						"NORMAL":1
					},
					"indices":2,
					"material":0
				},
				{
					"attributes":{
						"POSITION":3,
						"NORMAL":4
					},
					"indices":5,
					"material":1
				},
				{
					"attributes":{
						"POSITION":6,
						"NORMAL":7
					},
					"indices":8,
					"material":2
				},
				{
					"attributes":{
						"POSITION":9,
						"NORMAL":10
					},
					"indices":11,
					"material":3
				},
				{
					"attributes":{
						"POSITION":12,
						"NORMAL":13
					},
					"indices":14,
					"material":4
				},
				{
					"attributes":{
						"POSITION":15,
						"NORMAL":16
					},
					"indices":17,
					"material":5
				},
				{
					"attributes":{
						"POSITION":18,
						"NORMAL":19
					},
					"indices":20,
					"material":6
				}
			]
		},
		{
			"name":"\u7acb\u65b9\u4f53.001",
			"primitives":[
				{
					"attributes":{
						"POSITION":21,
						"NORMAL":22,
						"TEXCOORD_0":23
					},
					"indices":24
				}
			]
		},
		{
			"name":"\u5e73\u9762",
			"primitives":[
				{
					"attributes":{
						"POSITION":25,
						"NORMAL":26,
						"TEXCOORD_0":27
					},
					"indices":28,
					"material":7
				}
			]
		}
	],
	"textures":[
		{
			"sampler":0,
			"source":0
		}
	],
	"images":[
		{
			"mimeType":"image/png",
			"name":"Logo",
			"uri":"Logo.png"
		}
	],
	"accessors":[
		{
			"bufferView":0,
			"componentType":5126,
			"count":510,
			"max":[
				0.04679910093545914,
				0.0958060771226883,
				0.11107537895441055
			],
			"min":[
				-0.04644137620925903,
				0.008776038885116577,
				-0.10397400707006454
			],
			"type":"VEC3"
		},
		{
			"bufferView":1,
			"componentType":5126,
			"count":510,
			"type":"VEC3"
		},
		{
			"bufferView":2,
			"componentType":5123,
			"count":1128,
			"type":"SCALAR"
		},
		{
			"bufferView":3,
			"componentType":5126,
			"count":20,
			"max":[
				0.041401054710149765,
				0.09220605343580246,
				0.10839191824197769
			],
			"min":[
				-0.04139962047338486,
				0.06279853731393814,
				-0.08315794169902802
			],
			"type":"VEC3"
		},
		{
			"bufferView":4,
			"componentType":5126,
			"count":20,
			"type":"VEC3"
		},
		{
			"bufferView":5,
			"componentType":5123,
			"count":30,
			"type":"SCALAR"
		},
		{
			"bufferView":6,
			"componentType":5126,
			"count":112,
			"max":[
				0.03609137237071991,
				0.04486602917313576,
				-0.10137400776147842
			],
			"min":[
				-0.036088697612285614,
				0.03405892476439476,
				-0.1041262298822403
			],
			"type":"VEC3"
		},
		{
			"bufferView":7,
			"componentType":5126,
			"count":112,
			"type":"VEC3"
		},
		{
			"bufferView":8,
			"componentType":5123,
			"count":132,
			"type":"SCALAR"
		},
		{
			"bufferView":9,
			"componentType":5126,
			"count":97,
			"max":[
				0.046801093965768814,
				0.04486272856593132,
				0.08385730534791946
			],
			"min":[
				-0.04680123180150986,
				0.00877601932734251,
				-0.10414129495620728
			],
			"type":"VEC3"
		},
		{
			"bufferView":10,
			"componentType":5126,
			"count":97,
			"type":"VEC3"
		},
		{
			"bufferView":11,
			"componentType":5123,
			"count":234,
			"type":"SCALAR"
		},
		{
			"bufferView":12,
			"componentType":5126,
			"count":512,
			"max":[
				0.04770119860768318,
				0.037306047976017,
				0.09132731705904007
			],
			"min":[
				-0.047701332718133926,
				0.001306016813032329,
				-0.09047405421733856
			],
			"type":"VEC3"
		},
		{
			"bufferView":13,
			"componentType":5126,
			"count":512,
			"type":"VEC3"
		},
		{
			"bufferView":14,
			"componentType":5123,
			"count":1536,
			"type":"SCALAR"
		},
		{
			"bufferView":15,
			"componentType":5126,
			"count":44,
			"max":[
				0.035849541425704956,
				0.049527861177921295,
				0.11219096183776855
			],
			"min":[
				-0.035852693021297455,
				0.03789345175027847,
				0.11068568378686905
			],
			"type":"VEC3"
		},
		{
			"bufferView":16,
			"componentType":5126,
			"count":44,
			"type":"VEC3"
		},
		{
			"bufferView":17,
			"componentType":5123,
			"count":72,
			"type":"SCALAR"
		},
		{
			"bufferView":18,
			"componentType":5126,
			"count":160,
			"max":[
				0.040231358259916306,
				0.05430006608366966,
				0.11219096183776855
			],
			"min":[
				-0.04022869095206261,
				0.04162093251943588,
				-0.10256613790988922
			],
			"type":"VEC3"
		},
		{
			"bufferView":19,
			"componentType":5126,
			"count":160,
			"type":"VEC3"
		},
		{
			"bufferView":20,
			"componentType":5123,
			"count":204,
			"type":"SCALAR"
		},
		{
			"bufferView":21,
			"componentType":5126,
			"count":24,
			"max":[
				0.04154230281710625,
				0.09231510758399963,
				0.11033697426319122
			],
			"min":[
				-0.04154230281710625,
				0.0030221007764339447,
				-0.10566888749599457
			],
			"type":"VEC3"
		},
		{
			"bufferView":22,
			"componentType":5126,
			"count":24,
			"type":"VEC3"
		},
		{
			"bufferView":23,
			"componentType":5126,
			"count":24,
			"type":"VEC2"
		},
		{
			"bufferView":24,
			"componentType":5123,
			"count":36,
			"type":"SCALAR"
		},
		{
			"bufferView":25,
			"componentType":5126,
			"count":18,
			"max":[
				0.04457029327750206,
				0.09350001811981201,
				0.045209985226392746
			],
			"min":[
				0.03846757486462593,
				0.018499992787837982,
				-0.029790032655000687
			],
			"type":"VEC3"
		},
		{
			"bufferView":26,
			"componentType":5126,
			"count":18,
			"type":"VEC3"
		},
		{
			"bufferView":27,
			"componentType":5126,
			"count":18,
			"type":"VEC2"
		},
		{
			"bufferView":28,
			"componentType":5123,
			"count":36,
			"type":"SCALAR"
		}
	],
	"bufferViews":[
		{
			"buffer":0,
			"byteLength":6120,
			"byteOffset":0,
			"target":34962
		},
		{
			"buffer":0,
			"byteLength":6120,
			"byteOffset":6120,
			"target":34962
		},
		{
			"buffer":0,
			"byteLength":2256,
			"byteOffset":12240,
			"target":34963
		},
		{
			"buffer":0,
			"byteLength":240,
			"byteOffset":14496,
			"target":34962
		},
		{
			"buffer":0,
			"byteLength":240,
			"byteOffset":14736,
			"target":34962
		},
		{
			"buffer":0,
			"byteLength":60,
			"byteOffset":14976,
			"target":34963
		},
		{
			"buffer":0,
			"byteLength":1344,
			"byteOffset":15036,
			"target":34962
		},
		{
			"buffer":0,
			"byteLength":1344,
			"byteOffset":16380,
			"target":34962
		},
		{
			"buffer":0,
			"byteLength":264,
			"byteOffset":17724,
			"target":34963
		},
		{
			"buffer":0,
			"byteLength":1164,
			"byteOffset":17988,
			"target":34962
		},
		{
			"buffer":0,
			"byteLength":1164,
			"byteOffset":19152,
			"target":34962
		},
		{
			"buffer":0,
			"byteLength":468,
			"byteOffset":20316,
			"target":34963
		},
		{
			"buffer":0,
			"byteLength":6144,
			"byteOffset":20784,
			"target":34962
		},
		{
			"buffer":0,
			"byteLength":6144,
			"byteOffset":26928,
			"target":34962
		},
		{
			"buffer":0,
			"byteLength":3072,
			"byteOffset":33072,
			"target":34963
		},
		{
			"buffer":0,
			"byteLength":528,
			"byteOffset":36144,
			"target":34962
		},
		{
			"buffer":0,
			"byteLength":528,
			"byteOffset":36672,
			"target":34962
		},
		{
			"buffer":0,
			"byteLength":144,
			"byteOffset":37200,
			"target":34963
		},
		{
			"buffer":0,
			"byteLength":1920,
			"byteOffset":37344,
			"target":34962
		},
		{
			"buffer":0,
			"byteLength":1920,
			"byteOffset":39264,
			"target":34962
		},
		{
			"buffer":0,
			"byteLength":408,
			"byteOffset":41184,
			"target":34963
		},
		{
			"buffer":0,
			"byteLength":288,
			"byteOffset":41592,
			"target":34962
		},
		{
			"buffer":0,
			"byteLength":288,
			"byteOffset":41880,
			"target":34962
		},
		{
			"buffer":0,
			"byteLength":192,
			"byteOffset":42168,
			"target":34962
		},
		{
			"buffer":0,
			"byteLength":72,
			"byteOffset":42360,
			"target":34963
		},
		{
			"buffer":0,
			"byteLength":216,
			"byteOffset":42432,
			"target":34962
		},
		{
			"buffer":0,
			"byteLength":216,
			"byteOffset":42648,
			"target":34962
		},
		{
			"buffer":0,
			"byteLength":144,
			"byteOffset":42864,
			"target":34962
		},
		{
			"buffer":0,
			"byteLength":72,
			"byteOffset":43008,
			"target":34963
		}
	],
	"samplers":[
		{
			"magFilter":9729,
			"minFilter":9987
		}
	],
	"buffers":[
		{
			"byteLength":43080,
			"uri":"car_van2.bin"
		}
	]
}
