{
	"asset":{
		"generator":"Khronos glTF Blender I/O v5.1.20",
		"version":"2.0"
	},
	"scene":0,
	"scenes":[
		{
			"name":"Scene",
			"nodes":[
				0,
				1,
				2
			]
		}
	],
	"nodes":[
		{
			"mesh":0,
			"name":"car-van-red_Cube.624"
		},
		{
			"mesh":1,
			"name":"COL1",
			"scale":[
				0.48507019877433777,
				0.5114570260047913,
				1.127583622932434
			],
			"translation":[
				0,
				0.46072715520858765,
				-0.0759456530213356
			]
		},
		{
			"mesh":2,
			"name":"\u5e73\u9762"
		}
	],
	"materials":[
		{
			"doubleSided":true,
			"name":"carmaterial_red",
			"pbrMetallicRoughness":{
				"baseColorFactor":[
					0.6392819881439209,
					0.05781799927353859,
					0.03614899888634682,
					1
				],
				"metallicFactor":0,
				"roughnessFactor":0.6900347471237183
			}
		},
		{
			"doubleSided":true,
			"name":"windows",
			"pbrMetallicRoughness":{
				"baseColorFactor":[
					0.22351999580860138,
					0.45107799768447876,
					0.6399999856948853,
					1
				],
				"metallicFactor":0,
				"roughnessFactor":0.6900347471237183
			}
		},
		{
			"doubleSided":true,
			"name":"lights",
			"pbrMetallicRoughness":{
				"baseColorFactor":[
					0.6399999856948853,
					0.6314700245857239,
					0.5094929933547974,
					1
				],
				"metallicFactor":0,
				"roughnessFactor":0.6900347471237183
			}
		},
		{
			"doubleSided":true,
			"name":"metal",
			"pbrMetallicRoughness":{
				"baseColorFactor":[
					0.3583829998970032,
					0.3583829998970032,
					0.3583829998970032,
					1
				],
				"metallicFactor":0,
				"roughnessFactor":0.6900347471237183
			}
		},
		{
			"doubleSided":true,
			"name":"tires",
			"pbrMetallicRoughness":{
				"baseColorFactor":[
					0.020315000787377357,
					0.020315000787377357,
					0.020315000787377357,
					1
				],
				"metallicFactor":0,
				"roughnessFactor":0.6900347471237183
			}
		},
		{
			"doubleSided":true,
			"name":"lights.red",
			"pbrMetallicRoughness":{
				"baseColorFactor":[
					0.800000011920929,
					0.005716000217944384,
					0.00866399984806776,
					1
				],
				"metallicFactor":0,
				"roughnessFactor":0.6900347471237183
			}
		},
		{
			"doubleSided":true,
			"name":"lights.orange",
			"pbrMetallicRoughness":{
				"baseColorFactor":[
					0.800000011920929,
					0.2475149929523468,
					0.007284000050276518,
					1
				],
				"metallicFactor":0,
				"roughnessFactor":0.6900347471237183
			}
		},
		{
			"doubleSided":true,
			"name":"\u30de\u30c6\u30ea\u30a2\u30eb",
			"pbrMetallicRoughness":{
				"baseColorFactor":[
					0.21253660321235657,
					0.18876974284648895,
					0.21403133869171143,
					1
				],
				"metallicFactor":0,
				"roughnessFactor":0.5
			}
		}
	],
	"meshes":[
		{
			"name":"car-van-red_Cube.624",
			"primitives":[
				{
					"attributes":{
						"POSITION":0,
						"NORMAL":1
					},
					"indices":2,
					"material":0
				},
				{
					"attributes":{
						"POSITION":3,
						"NORMAL":4
					},
					"indices":5,
					"material":1
				},
				{
					"attributes":{
						"POSITION":6,
						"NORMAL":7
					},
					"indices":8,
					"material":2
				},
				{
					"attributes":{
						"POSITION":9,
						"NORMAL":10
					},
					"indices":11,
					"material":3
				},
				{
					"attributes":{
						"POSITION":12,
						"NORMAL":13
					},
					"indices":14,
					"material":4
				},
				{
					"attributes":{
						"POSITION":15,
						"NORMAL":16
					},
					"indices":17,
					"material":5
				},
				{
					"attributes":{
						"POSITION":18,
						"NORMAL":19
					},
					"indices":20,
					"material":6
				}
			]
		},
		{
			"name":"\u7acb\u65b9\u4f53",
			"primitives":[
				{
					"attributes":{
						"POSITION":21,
						"NORMAL":22,
						"TEXCOORD_0":23
					},
					"indices":24
				}
			]
		},
		{
			"name":"\u5e73\u9762",
			"primitives":[
				{
					"attributes":{
						"POSITION":25,
						"NORMAL":26,
						"TEXCOORD_0":27
					},
					"indices":28,
					"material":7
				}
			]
		}
	],
	"accessors":[
		{
			"bufferView":0,
			"componentType":5126,
			"count":469,
			"max":[
				0.23220613598823547,
				0.4790302813053131,
				0.5553767681121826
			],
			"min":[
				-0.2322068214416504,
				0.09653007239103317,
				-0.5198699235916138
			],
			"type":"VEC3"
		},
		{
			"bufferView":1,
			"componentType":5126,
			"count":469,
			"type":"VEC3"
		},
		{
			"bufferView":2,
			"componentType":5123,
			"count":1074,
			"type":"SCALAR"
		},
		{
			"bufferView":3,
			"componentType":5126,
			"count":20,
			"max":[
				0.20700523257255554,
				0.46103015542030334,
				0.5419594645500183
			],
			"min":[
				-0.2069980502128601,
				0.31399261951446533,
				-0.4157896041870117
			],
			"type":"VEC3"
		},
		{
			"bufferView":4,
			"componentType":5126,
			"count":20,
			"type":"VEC3"
		},
		{
			"bufferView":5,
			"componentType":5123,
			"count":30,
			"type":"SCALAR"
		},
		{
			"bufferView":6,
			"componentType":5126,
			"count":112,
			"max":[
				0.18045681715011597,
				0.2243300974369049,
				-0.506869912147522
			],
			"min":[
				-0.1804434359073639,
				0.17029458284378052,
				-0.5206310153007507
			],
			"type":"VEC3"
		},
		{
			"bufferView":7,
			"componentType":5126,
			"count":112,
			"type":"VEC3"
		},
		{
			"bufferView":8,
			"componentType":5123,
			"count":132,
			"type":"SCALAR"
		},
		{
			"bufferView":9,
			"componentType":5126,
			"count":88,
			"max":[
				0.2340054214000702,
				0.22431358695030212,
				0.41928642988204956
			],
			"min":[
				-0.2340061068534851,
				0.04388008639216423,
				-0.5207063555717468
			],
			"type":"VEC3"
		},
		{
			"bufferView":10,
			"componentType":5126,
			"count":88,
			"type":"VEC3"
		},
		{
			"bufferView":11,
			"componentType":5123,
			"count":222,
			"type":"SCALAR"
		},
		{
			"bufferView":12,
			"componentType":5126,
			"count":512,
			"max":[
				0.23850592970848083,
				0.186530202627182,
				0.4566364884376526
			],
			"min":[
				-0.23850661516189575,
				0.006530082784593105,
				-0.45237016677856445
			],
			"type":"VEC3"
		},
		{
			"bufferView":13,
			"componentType":5126,
			"count":512,
			"type":"VEC3"
		},
		{
			"bufferView":14,
			"componentType":5123,
			"count":1536,
			"type":"SCALAR"
		},
		{
			"bufferView":15,
			"componentType":5126,
			"count":44,
			"max":[
				0.1792476624250412,
				0.2476392388343811,
				0.5609546899795532
			],
			"min":[
				-0.1792634278535843,
				0.18946722149848938,
				0.5534282922744751
			],
			"type":"VEC3"
		},
		{
			"bufferView":16,
			"componentType":5126,
			"count":44,
			"type":"VEC3"
		},
		{
			"bufferView":17,
			"componentType":5123,
			"count":72,
			"type":"SCALAR"
		},
		{
			"bufferView":18,
			"componentType":5126,
			"count":160,
			"max":[
				0.20115673542022705,
				0.27150025963783264,
				0.5609546899795532
			],
			"min":[
				-0.20114339888095856,
				0.20810461044311523,
				-0.5128305554389954
			],
			"type":"VEC3"
		},
		{
			"bufferView":19,
			"componentType":5126,
			"count":160,
			"type":"VEC3"
		},
		{
			"bufferView":20,
			"componentType":5123,
			"count":204,
			"type":"SCALAR"
		},
		{
			"bufferView":21,
			"componentType":5126,
			"count":24,
			"max":[
				1,
				1,
				1
			],
			"min":[
				-1,
				-1,
				-1
			],
			"type":"VEC3"
		},
		{
			"bufferView":22,
			"componentType":5126,
			"count":24,
			"type":"VEC3"
		},
		{
			"bufferView":23,
			"componentType":5126,
			"count":24,
			"type":"VEC2"
		},
		{
			"bufferView":24,
			"componentType":5123,
			"count":36,
			"type":"SCALAR"
		},
		{
			"bufferView":25,
			"componentType":5126,
			"count":4,
			"max":[
				0.21439971029758453,
				0.10135030001401901,
				0.5522022843360901
			],
			"min":[
				-0.2144004851579666,
				0.10135030001401901,
				-0.5120991468429565
			],
			"type":"VEC3"
		},
		{
			"bufferView":26,
			"componentType":5126,
			"count":4,
			"type":"VEC3"
		},
		{
			"bufferView":27,
			"componentType":5126,
			"count":4,
			"type":"VEC2"
		},
		{
			"bufferView":28,
			"componentType":5123,
			"count":6,
			"type":"SCALAR"
		}
	],
	"bufferViews":[
		{
			"buffer":0,
			"byteLength":5628,
			"byteOffset":0,
			"target":34962
		},
		{
			"buffer":0,
			"byteLength":5628,
			"byteOffset":5628,
			"target":34962
		},
		{
			"buffer":0,
			"byteLength":2148,
			"byteOffset":11256,
			"target":34963
		},
		{
			"buffer":0,
			"byteLength":240,
			"byteOffset":13404,
			"target":34962
		},
		{
			"buffer":0,
			"byteLength":240,
			"byteOffset":13644,
			"target":34962
		},
		{
			"buffer":0,
			"byteLength":60,
			"byteOffset":13884,
			"target":34963
		},
		{
			"buffer":0,
			"byteLength":1344,
			"byteOffset":13944,
			"target":34962
		},
		{
			"buffer":0,
			"byteLength":1344,
			"byteOffset":15288,
			"target":34962
		},
		{
			"buffer":0,
			"byteLength":264,
			"byteOffset":16632,
			"target":34963
		},
		{
			"buffer":0,
			"byteLength":1056,
			"byteOffset":16896,
			"target":34962
		},
		{
			"buffer":0,
			"byteLength":1056,
			"byteOffset":17952,
			"target":34962
		},
		{
			"buffer":0,
			"byteLength":444,
			"byteOffset":19008,
			"target":34963
		},
		{
			"buffer":0,
			"byteLength":6144,
			"byteOffset":19452,
			"target":34962
		},
		{
			"buffer":0,
			"byteLength":6144,
			"byteOffset":25596,
			"target":34962
		},
		{
			"buffer":0,
			"byteLength":3072,
			"byteOffset":31740,
			"target":34963
		},
		{
			"buffer":0,
			"byteLength":528,
			"byteOffset":34812,
			"target":34962
		},
		{
			"buffer":0,
			"byteLength":528,
			"byteOffset":35340,
			"target":34962
		},
		{
			"buffer":0,
			"byteLength":144,
			"byteOffset":35868,
			"target":34963
		},
		{
			"buffer":0,
			"byteLength":1920,
			"byteOffset":36012,
			"target":34962
		},
		{
			"buffer":0,
			"byteLength":1920,
			"byteOffset":37932,
			"target":34962
		},
		{
			"buffer":0,
			"byteLength":408,
			"byteOffset":39852,
			"target":34963
		},
		{
			"buffer":0,
			"byteLength":288,
			"byteOffset":40260,
			"target":34962
		},
		{
			"buffer":0,
			"byteLength":288,
			"byteOffset":40548,
			"target":34962
		},
		{
			"buffer":0,
			"byteLength":192,
			"byteOffset":40836,
			"target":34962
		},
		{
			"buffer":0,
			"byteLength":72,
			"byteOffset":41028,
			"target":34963
		},
		{
			"buffer":0,
			"byteLength":48,
			"byteOffset":41100,
			"target":34962
		},
		{
			"buffer":0,
			"byteLength":48,
			"byteOffset":41148,
			"target":34962
		},
		{
			"buffer":0,
			"byteLength":32,
			"byteOffset":41196,
			"target":34962
		},
		{
			"buffer":0,
			"byteLength":12,
			"byteOffset":41228,
			"target":34963
		}
	],
	"buffers":[
		{
			"byteLength":41240,
			"uri":"car_van.bin"
		}
	]
}
